
<svg width="20px" height="20px" viewBox="81 26 20 20" version="1.1" xmlns="http://www.w3.org/2000/svg" xmlns:xlink="http://www.w3.org/1999/xlink">
    <!-- Generator: Sketch 40.3 (33839) - http://www.bohemiancoding.com/sketch -->
    <desc>Created with Sketch.</desc>
    <defs></defs>
    <path d="M100.947076,43.3163984 C101.03228,43.6563088 101.014605,43.9785439 100.89405,44.2831037 C100.773495,44.5876635 100.585864,44.8568725 100.331158,45.0907309 C100.076452,45.3245893 99.7648672,45.5088208 99.3964043,45.6434253 C99.0279413,45.7780299 98.6313791,45.8453322 98.2067177,45.8453322 C95.5300361,45.8593818 93.1363867,45.8664066 91.0257694,45.8664066 L83.8026721,45.8664066 C83.2928064,45.8664066 82.8432182,45.7744042 82.4539074,45.5903993 C82.0645967,45.4063945 81.7530121,45.1797875 81.5191537,44.9105784 C81.2852953,44.6413693 81.1293897,44.3474601 81.0514369,44.0288507 C80.9734841,43.7102413 80.9841346,43.4233568 81.0833885,43.1681974 C81.1685927,42.9696897 81.2535703,42.7643838 81.3383213,42.5522796 C81.4090227,42.3682748 81.4940003,42.1593432 81.5932542,41.9254848 C81.692508,41.6916264 81.7987867,41.4543689 81.9120902,41.2137123 L82.7197174,39.2592271 L85.1419193,39.2592271 L84.22824,41.9363619 L97.9096359,41.9363619 L96.9959566,39.2592271 L99.3114267,39.2592271 C99.608735,39.9816502 99.8779441,40.6331452 100.119054,41.2137123 C100.218308,41.4688717 100.317562,41.7167797 100.416815,41.9574363 C100.516069,42.1980929 100.604673,42.4140494 100.682625,42.6053057 C100.760578,42.796562 100.824255,42.9594924 100.873655,43.0940969 C100.923055,43.2287015 100.947756,43.3030285 100.947756,43.3170782 L100.947076,43.3163984 Z M90.2609708,39.3863536 C89.9917617,39.0745425 89.6838029,38.6850051 89.3370942,38.2177415 C88.9903855,37.7504779 88.6327997,37.2689381 88.2643368,36.773122 C87.8958739,36.277306 87.5312632,35.7887414 87.1705049,35.3074282 C86.8097466,34.8261149 86.4875115,34.4082517 86.2037996,34.0538384 C85.8779388,33.6713258 85.7503591,33.3561155 85.8210604,33.1082075 C85.8917618,32.8602995 86.132645,32.7363454 86.5437101,32.7363454 C86.770317,32.7503951 87.0748768,32.7467694 87.4573894,32.7254683 C87.8399019,32.7041673 88.1585113,32.6935167 88.4132176,32.6935167 C88.6964763,32.6935167 88.8734563,32.6085391 88.9441577,32.4385839 C89.0148591,32.2686287 89.0502098,32.0420217 89.0502098,31.758763 C89.0502098,31.4469518 89.0465841,31.1034156 89.0393326,30.7281545 C89.0320812,30.3528933 89.0284555,29.9669816 89.0284555,29.5704194 C89.0284555,29.1738572 89.0248298,28.7843199 89.0175784,28.4018073 C89.0103269,28.0192947 89.0067012,27.665108 89.0067012,27.3392472 C89.0067012,27.1973912 89.0173518,27.0487371 89.0386528,26.8932847 C89.0599539,26.7378323 89.1095808,26.5962029 89.1875336,26.4683966 C89.2654864,26.3405903 89.3787899,26.2343116 89.5274441,26.1495606 C89.6760982,26.0648096 89.878005,26.0222075 90.1331645,26.0217543 C90.4304728,26.0217543 90.703081,26.0181286 90.9509891,26.0108771 C91.1988971,26.0036257 91.4857815,26 91.8116423,26 C92.2789059,26 92.5941162,26.1096778 92.7572732,26.3290333 C92.9204302,26.5483889 93.0090336,26.8989499 93.0230832,27.3807163 L93.0230832,28.209418 C93.0230832,28.5352788 93.0267089,28.8822141 93.0339603,29.2502238 C93.0412118,29.6182335 93.0448375,29.9864698 93.0448375,30.3549328 L93.0448375,31.3535897 C93.0448375,31.7642015 93.0874396,32.0934615 93.1726438,32.3413695 C93.257848,32.5892775 93.4491043,32.7062067 93.7464127,32.6921571 C93.95897,32.6921571 94.2175286,32.6991819 94.5220883,32.7132315 C94.8266481,32.7272812 95.0922315,32.734306 95.3188384,32.734306 C95.701351,32.734306 95.9456333,32.8369589 96.0516854,33.0422649 C96.1577374,33.2475708 96.0834104,33.5131541 95.8287041,33.839015 C95.559495,34.1789254 95.2479105,34.5897639 94.8939504,35.0715303 C94.5399903,35.5532967 94.1753797,36.0525119 93.8001185,36.5691758 C93.4248574,37.0858397 93.056621,37.5886805 92.6954095,38.0776984 C92.334198,38.5667162 92.0119629,38.9879786 91.7287042,39.3414855 C91.4735447,39.6673463 91.2292624,39.8336758 90.9958572,39.840474 C90.7624521,39.8472722 90.5181697,39.6949923 90.2630103,39.3836344 L90.2609708,39.3863536 Z" id="Shape" stroke="none" fill="#455D7A" fill-rule="evenodd"></path>
</svg>
