
<svg width="17px" height="15px" viewBox="86 30 17 15" version="1.1" xmlns="http://www.w3.org/2000/svg" xmlns:xlink="http://www.w3.org/1999/xlink">
    <!-- Generator: Sketch 40.3 (33839) - http://www.bohemiancoding.com/sketch -->
    <desc>Created with Sketch.</desc>
    <defs></defs>
    <path d="M101.613771,33.1356854 C101.35346,32.5241365 100.980992,31.9751476 100.506755,31.5039357 C100.032482,31.0327055 99.4799084,30.6626054 98.8643864,30.4039376 C98.2265688,30.1359139 97.5496376,30 96.8523526,30 C95.8316979,30 94.848966,30.2970193 94.0102124,30.8489569 C93.1713307,30.2970739 92.1885621,30 91.1682188,30 C90.4709705,30 89.7940392,30.1358957 89.1562033,30.4039194 C88.5406631,30.662569 87.9880527,31.0326509 87.5137428,31.5038629 C87.0394329,31.9750748 86.6669284,32.5240637 86.4065801,33.1355944 C86.1367969,33.7692587 86,34.4417842 86,35.1344774 C86,36.3051719 86.4226286,37.5470906 87.2561609,38.8257226 C87.8810811,39.7843826 88.7430279,40.7745684 89.818057,41.7688133 C91.6146087,43.4303414 93.3893227,44.5374383 93.4639775,44.583744 L94.0102857,44.9226096 L94.556594,44.583744 C94.6312671,44.5374383 96.4058895,43.4303414 98.2023495,41.7688133 C99.2773237,40.7745684 100.139234,39.7843826 100.764136,38.8257226 C101.597613,37.5470724 102.020242,36.3051719 102.020242,35.1344956 C102.02026,34.4418206 101.8835,33.7693315 101.613771,33.1356854 Z" id="Shape" stroke="none" fill="#455D7A" fill-rule="evenodd"></path>
</svg>
