
<svg width="20px" height="16px" viewBox="272 578 20 16" version="1.1" xmlns="http://www.w3.org/2000/svg" xmlns:xlink="http://www.w3.org/1999/xlink">
    <!-- Generator: Sketch 40.3 (33839) - http://www.bohemiancoding.com/sketch -->
    <desc>Created with Sketch.</desc>
    <defs></defs>
    <g id="消息" stroke="none" stroke-width="1" fill="none" fill-rule="evenodd" transform="translate(272.000000, 578.000000)">
        <path d="M19.470705,9.08367347 C19.7527273,9.08367347 19.9815584,8.85426716 19.9815584,8.57222635 L19.9815584,1.94502783 C19.9815584,1.53534323 19.8534137,1.15636364 19.6372542,0.843191095 C19.6283673,0.828979592 19.6262338,0.812597403 19.6162338,0.798831169 C19.599295,0.776790353 19.5761039,0.764638219 19.5566605,0.745640074 C19.2007607,0.295974026 18.6566976,0.00231910946 18.0388683,0.00231910946 L1.95120594,0.00231910946 C0.877884972,0.00231910946 0.00851576994,0.871706865 0.00851576994,1.94500928 L0.00851576994,13.7141744 C0.00851576994,14.7876067 0.877903525,15.6562894 1.95120594,15.6562894 L18.0388683,15.6562894 C19.1123006,15.6562894 19.9815584,14.7876067 19.9815584,13.7141744 L19.9815584,12.0954545 C19.9799629,11.8144712 19.7522635,11.5867532 19.470705,11.5867532 C19.1892393,11.5867532 18.9604267,11.8144712 18.959295,12.0954545 L18.959295,13.6119852 C18.959295,14.1770501 18.5007421,14.634731 17.9365492,14.634731 L2.05350649,14.634731 C1.48935065,14.634731 1.0306679,14.1770686 1.0306679,13.6119852 L1.0306679,2.04734694 C1.0306679,1.99141002 1.03860853,1.93812616 1.04705009,1.88432282 L9.98502783,9.1748423 C9.9854731,9.1748423 9.98651206,9.17539889 9.98706865,9.17597403 C10.0667904,9.23541744 10.1573655,9.26076067 10.2490909,9.27076067 C10.2754917,9.27552876 10.3012801,9.27395176 10.3282189,9.2745269 C10.3545826,9.27397032 10.3804082,9.27554731 10.4067718,9.27076067 C10.4989796,9.26077922 10.589666,9.23541744 10.6687941,9.17597403 C10.6692393,9.17538033 10.6703896,9.1748423 10.670872,9.1748423 L18.9519295,1.97298701 C18.953525,1.99779221 18.9593321,2.02200371 18.9593321,2.04734694 L18.9593321,8.57233766 C18.9593321,8.85424861 19.1881447,9.08367347 19.4707421,9.08367347 L19.4707421,9.08367347 L19.470705,9.08367347 Z M2.05348794,1.02447124 L17.9365306,1.02447124 C18.0710204,1.02447124 18.199128,1.05200371 18.3172356,1.09942486 L10.3282004,8.08096475 L1.76241187,1.07200371 C1.85525046,1.04404453 1.95165121,1.02447124 2.05350649,1.02447124 L2.05350649,1.02447124 L2.05348794,1.02447124 Z" id="Shape" fill="#455D7A"></path>
    </g>
</svg>
