
<svg width="20px" height="19px" viewBox="84 26 20 19" version="1.1" xmlns="http://www.w3.org/2000/svg" xmlns:xlink="http://www.w3.org/1999/xlink">
    <!-- Generator: Sketch 40.3 (33839) - http://www.bohemiancoding.com/sketch -->
    <desc>Created with Sketch.</desc>
    <defs></defs>
    <g id="分享" stroke="none" stroke-width="1" fill="none" fill-rule="evenodd" transform="translate(84.000000, 26.000000)">
        <path d="M16.4017098,11.3400499 C14.9834064,11.3400499 13.7547447,12.1691789 13.1757757,13.3683762 L7.14500319,12.175491 C7.10531024,11.8356705 7.01866763,11.510202 6.89041998,11.2061581 L10.9004224,6.85522934 C11.3470661,7.05592873 11.8412584,7.16841899 12.3617821,7.16841899 C14.3356026,7.16841899 15.9414051,5.56245525 15.9414051,3.58849656 C15.9414051,1.61483735 14.3356026,0.00919613048 12.3617821,0.00919613048 C10.3878004,0.00919613048 8.78215919,1.61483735 8.78215919,3.58849656 C8.78215919,4.33632756 9.0129681,5.03110407 9.40648819,5.60594934 L5.65781885,9.67342938 C5.07350533,9.25846173 4.36032216,9.01350803 3.59072108,9.01350803 C1.61690061,9.01350803 0.0109368729,10.6191492 0.0109368729,12.593131 C0.0109368729,14.5667902 1.61690061,16.1727539 3.59072108,16.1727539 C5.02731591,16.1727539 6.26795699,15.3217397 6.83745764,14.0978005 L12.8405165,15.2850185 C13.0242145,17.0877423 14.5515295,18.4991575 16.4016867,18.4991575 C18.3755303,18.4991575 19.9811484,16.8931938 19.9811484,14.9193733 C19.9811484,12.9455528 18.3755303,11.3400499 16.4017098,11.3400499 Z M12.3617591,1.95445057 C13.2627178,1.95445057 13.9960585,2.68749174 13.9960585,3.58845048 C13.9960585,4.48957048 13.2627178,5.22277291 12.3617591,5.22277291 C11.4606391,5.22277291 10.7274367,4.48957048 10.7274367,3.58845048 C10.7274367,2.68749174 11.4606391,1.95445057 12.3617591,1.95445057 Z M3.59072108,14.2271079 C2.68960108,14.2271079 1.95607613,13.4939285 1.95607613,12.5931079 C1.95607613,11.6918267 2.68957804,10.9588085 3.59072108,10.9588085 C4.49167982,10.9588085 5.22488225,11.6918267 5.22488225,12.5931079 C5.22488225,13.4939285 4.49170286,14.2271079 3.59072108,14.2271079 Z M16.4017098,16.5538109 C15.500751,16.5538109 14.7672491,15.8204703 14.7672491,14.9193503 C14.7672491,14.0182303 15.500751,13.2850509 16.4017098,13.2850509 C17.3028298,13.2850509 18.035894,14.0182303 18.035894,14.9193503 C18.035894,15.8204703 17.3028298,16.5538109 16.4017098,16.5538109 Z" id="Shape" fill="#455D7A"></path>
    </g>
</svg>
