<?xml version="1.0" encoding="UTF-8"?>
<svg width="100px" height="115px" viewBox="0 0 100 115" version="1.1" xmlns="http://www.w3.org/2000/svg" xmlns:xlink="http://www.w3.org/1999/xlink">
    <!-- Generator: Sketch 40.3 (33839) - http://www.bohemiancoding.com/sketch -->
    <title>Group</title>
    <desc>Created with Sketch.</desc>
    <defs></defs>
    <g id="Page-1" stroke="none" stroke-width="1" fill="none" fill-rule="evenodd">
        <g id="预览素材" transform="translate(-67.000000, -50.000000)">
            <g id="word-(1)" transform="translate(67.000000, 50.000000)">
                <g id="Group">
                    <path d="M0,8.92857143 L0,105.178571 C0,110.178571 4.10714286,114.285714 9.10714286,114.285714 L90.8928571,114.285714 C95.8928571,114.285714 100,110.178571 100,105.178571 L100,36.25 L66.25,0 L9.10714286,0 C4.10714286,0 0,3.92857143 0,8.92857143 Z" id="Shape" fill="#14A9DA"></path>
                    <path d="M100,36.4285714 L100,38.2142857 L77.1428571,38.2142857 C77.1428571,38.2142857 65.8928571,35.8928571 66.0714286,26.0714286 C66.0714286,26.0714286 66.6071429,36.4285714 76.9642857,36.4285714 L100,36.4285714 Z" id="Shape" fill="#0F93D0"></path>
                    <path d="M66.25,0 L66.25,26.0714286 C66.25,28.9285714 68.2142857,36.4285714 77.1428571,36.4285714 L100,36.4285714 L66.25,0 Z" id="Shape" fill="#FFFFFF"></path>
                    <path d="M25.3571429,96.25 L20,96.25 C18.9285714,96.25 18.0357143,95.3571429 18.0357143,94.2857143 L18.0357143,76.6071429 C18.0357143,75.5357143 18.9285714,74.8214286 20,74.8214286 L25.3571429,74.8214286 C32.1428571,74.8214286 36.4285714,79.4642857 36.4285714,85.5357143 C36.4285714,91.6071429 32.1428571,96.25 25.3571429,96.25 Z M25.3571429,77.1428571 L20.7142857,77.1428571 L20.7142857,93.75 L25.3571429,93.75 C30.7142857,93.75 33.75,90 33.75,85.5357143 C33.75,80.8928571 30.7142857,77.1428571 25.3571429,77.1428571 L25.3571429,77.1428571 Z M51.25,96.6071429 C44.8214286,96.6071429 40.5357143,91.7857143 40.5357143,85.5357143 C40.5357143,79.2857143 44.8214286,74.4642857 51.25,74.4642857 C57.5,74.4642857 61.7857143,79.1071429 61.7857143,85.5357143 C61.7857143,91.7857143 57.5,96.6071429 51.25,96.6071429 Z M51.25,76.7857143 C46.4285714,76.7857143 43.3928571,80.5357143 43.3928571,85.5357143 C43.3928571,90.5357143 46.4285714,94.1071429 51.25,94.1071429 C55.8928571,94.1071429 59.1071429,90.5357143 59.1071429,85.5357143 C59.1071429,80.5357143 55.8928571,76.7857143 51.25,76.7857143 Z M84.1071429,77.5 C84.2857143,77.6785714 84.4642857,78.0357143 84.4642857,78.3928571 C84.4642857,79.1071429 83.9285714,79.6428571 83.2142857,79.6428571 C82.8571429,79.6428571 82.5,79.4642857 82.3214286,79.2857143 C81.0714286,77.6785714 78.9285714,76.7857143 76.9642857,76.7857143 C72.3214286,76.7857143 68.75,80.3571429 68.75,85.5357143 C68.75,90.5357143 72.3214286,94.1071429 76.9642857,94.1071429 C78.9285714,94.1071429 80.8928571,93.3928571 82.3214286,91.7857143 C82.5,91.4285714 82.8571429,91.25 83.2142857,91.25 C83.9285714,91.25 84.4642857,91.9642857 84.4642857,92.6785714 C84.4642857,93.0357143 84.2857143,93.2142857 84.1071429,93.5714286 C82.5,95.3571429 80.1785714,96.6071429 76.9642857,96.6071429 C70.7142857,96.6071429 65.8928571,92.1428571 65.8928571,85.5357143 C65.8928571,78.9285714 70.7142857,74.4642857 76.9642857,74.4642857 C80.1785714,74.4642857 82.5,75.7142857 84.1071429,77.5 Z" id="Shape" fill="#FFFFFF"></path>
                </g>
            </g>
        </g>
    </g>
</svg>