<?xml version="1.0" encoding="UTF-8"?>
<svg width="100px" height="115px" viewBox="0 0 100 115" version="1.1" xmlns="http://www.w3.org/2000/svg" xmlns:xlink="http://www.w3.org/1999/xlink">
    <!-- Generator: Sketch 40.3 (33839) - http://www.bohemiancoding.com/sketch -->
    <title>pdf</title>
    <desc>Created with Sketch.</desc>
    <defs></defs>
    <g id="Page-1" stroke="none" stroke-width="1" fill="none" fill-rule="evenodd">
        <g id="预览素材" transform="translate(-67.000000, -182.000000)">
            <g id="pdf" transform="translate(67.000000, 182.000000)">
                <g id="Group">
                    <path d="M9.10714286,0 C4.10714286,0 0,4.10714286 0,9.10714286 L0,105.178571 C0,110.178571 4.10714286,114.285714 9.10714286,114.285714 L90.8928571,114.285714 C95.8928571,114.285714 100,110.178571 100,105.178571 L100,36.25 L66.25,0 L9.10714286,0 L9.10714286,0 Z" id="Shape" fill="#8C181A"></path>
                    <path d="M100,36.4285714 L100,38.2142857 L77.1428571,38.2142857 C77.1428571,38.2142857 65.8928571,35.8928571 66.25,26.25 C66.25,26.25 66.6071429,36.4285714 76.9642857,36.4285714 L100,36.4285714 Z" id="Shape" fill="#6B0D12"></path>
                    <path d="M66.25,0 L66.25,26.0714286 C66.25,29.1071429 68.2142857,36.4285714 77.1428571,36.4285714 L100,36.4285714 L66.25,0 Z" id="Shape" fill="#FFFFFF"></path>
                    <path d="M26.6071429,87.5 L20.7142857,87.5 L20.7142857,94.8214286 C20.7142857,95.5357143 20.1785714,96.0714286 19.2857143,96.0714286 C18.5714286,96.0714286 18.0357143,95.5357143 18.0357143,94.8214286 L18.0357143,76.6071429 C18.0357143,75.5357143 18.9285714,74.6428571 20,74.6428571 L26.6071429,74.6428571 C30.8928571,74.6428571 33.3928571,77.6785714 33.3928571,81.0714286 C33.3928571,84.6428571 30.8928571,87.5 26.6071429,87.5 Z M26.4285714,76.9642857 L20.7142857,76.9642857 L20.7142857,85.1785714 L26.4285714,85.1785714 C28.9285714,85.1785714 30.7142857,83.5714286 30.7142857,81.0714286 C30.7142857,78.5714286 28.9285714,76.9642857 26.4285714,76.9642857 L26.4285714,76.9642857 Z M45,96.0714286 L39.6428571,96.0714286 C38.5714286,96.0714286 37.6785714,95.1785714 37.6785714,94.1071429 L37.6785714,76.6071429 C37.6785714,75.5357143 38.5714286,74.6428571 39.6428571,74.6428571 L45,74.6428571 C51.6071429,74.6428571 56.0714286,79.2857143 56.0714286,85.3571429 C56.0714286,91.4285714 51.7857143,96.0714286 45,96.0714286 L45,96.0714286 Z M45,76.9642857 L40.3571429,76.9642857 L40.3571429,93.5714286 L45,93.5714286 C50.1785714,93.5714286 53.2142857,89.8214286 53.2142857,85.1785714 C53.3928571,80.7142857 50.3571429,76.9642857 45,76.9642857 L45,76.9642857 Z M74.1071429,76.9642857 L63.75,76.9642857 L63.75,83.9285714 L73.9285714,83.9285714 C74.6428571,83.9285714 75,84.4642857 75,85.1785714 C75,85.8928571 74.4642857,86.25 73.9285714,86.25 L63.75,86.25 L63.75,94.8214286 C63.75,95.5357143 63.2142857,96.0714286 62.3214286,96.0714286 C61.6071429,96.0714286 61.0714286,95.5357143 61.0714286,94.8214286 L61.0714286,76.6071429 C61.0714286,75.5357143 61.9642857,74.6428571 63.0357143,74.6428571 L74.1071429,74.6428571 C74.8214286,74.6428571 75.1785714,75.1785714 75.1785714,75.8928571 C75.3571429,76.4285714 74.8214286,76.9642857 74.1071429,76.9642857 L74.1071429,76.9642857 Z" id="Shape" fill="#FFFFFF"></path>
                </g>
            </g>
        </g>
    </g>
</svg>