<?xml version="1.0" encoding="UTF-8"?>
<svg width="100px" height="115px" viewBox="0 0 100 115" version="1.1" xmlns="http://www.w3.org/2000/svg" xmlns:xlink="http://www.w3.org/1999/xlink">
    <!-- Generator: Sketch 40.3 (33839) - http://www.bohemiancoding.com/sketch -->
    <title>ppt</title>
    <desc>Created with Sketch.</desc>
    <defs></defs>
    <g id="Page-1" stroke="none" stroke-width="1" fill="none" fill-rule="evenodd">
        <g id="预览素材" transform="translate(-180.000000, -182.000000)">
            <g id="ppt" transform="translate(180.000000, 182.000000)">
                <g id="Group">
                    <path d="M9.10714286,0 C4.10714286,0 0,4.10714286 0,9.10714286 L0,105.178571 C0,110.178571 4.10714286,114.285714 9.10714286,114.285714 L90.8928571,114.285714 C95.8928571,114.285714 100,110.178571 100,105.178571 L100,36.25 L66.25,0 L9.10714286,0 L9.10714286,0 Z" id="Shape" fill="#E34221"></path>
                    <path d="M100,36.4285714 L100,38.2142857 L77.1428571,38.2142857 C77.1428571,38.2142857 65.8928571,35.8928571 66.0714286,26.0714286 C66.0714286,26.0714286 66.6071429,36.4285714 76.9642857,36.4285714 L100,36.4285714 Z" id="Shape" fill="#DC3119"></path>
                    <path d="M66.25,0 L66.25,26.0714286 C66.25,28.9285714 68.2142857,36.4285714 77.1428571,36.4285714 L100,36.4285714 L66.25,0 Z" id="Shape" fill="#FFFFFF"></path>
                    <path d="M26.7857143,87.5 L20.7142857,87.5 L20.7142857,95 C20.7142857,95.7142857 20.1785714,96.25 19.4642857,96.25 C18.75,96.25 18.0357143,95.7142857 18.0357143,95 L18.0357143,76.6071429 C18.0357143,75.5357143 18.9285714,74.6428571 20,74.6428571 L26.7857143,74.6428571 C31.0714286,74.6428571 33.3928571,77.5 33.3928571,81.0714286 C33.3928571,84.6428571 30.8928571,87.5 26.7857143,87.5 Z M26.4285714,76.9642857 L20.7142857,76.9642857 L20.7142857,85.1785714 L26.4285714,85.1785714 C28.9285714,85.1785714 30.7142857,83.3928571 30.7142857,81.0714286 C30.7142857,78.5714286 28.9285714,76.9642857 26.4285714,76.9642857 L26.4285714,76.9642857 Z M46.4285714,87.5 L40.3571429,87.5 L40.3571429,95 C40.3571429,95.7142857 39.8214286,96.25 39.1071429,96.25 C38.3928571,96.25 37.8571429,95.7142857 37.8571429,95 L37.8571429,76.6071429 C37.8571429,75.5357143 38.5714286,74.6428571 39.6428571,74.6428571 L46.4285714,74.6428571 C50.7142857,74.6428571 53.0357143,77.5 53.0357143,81.0714286 C53.0357143,84.6428571 50.7142857,87.5 46.4285714,87.5 Z M46.0714286,76.9642857 L40.5357143,76.9642857 L40.5357143,85.1785714 L46.0714286,85.1785714 C48.5714286,85.1785714 50.3571429,83.3928571 50.3571429,81.0714286 C50.3571429,78.5714286 48.5714286,76.9642857 46.0714286,76.9642857 L46.0714286,76.9642857 Z M71.25,76.9642857 L65.3571429,76.9642857 L65.3571429,95 C65.3571429,95.7142857 64.8214286,96.25 64.1071429,96.25 C63.3928571,96.25 62.6785714,95.7142857 62.6785714,95 L62.6785714,76.9642857 L56.9642857,76.9642857 C56.25,76.9642857 55.7142857,76.4285714 55.7142857,75.7142857 C55.7142857,75.1785714 56.25,74.6428571 56.9642857,74.6428571 L71.25,74.6428571 C71.9642857,74.6428571 72.5,75.1785714 72.5,75.8928571 C72.5,76.4285714 71.9642857,76.9642857 71.25,76.9642857 Z" id="Shape" fill="#FFFFFF"></path>
                </g>
            </g>
        </g>
    </g>
</svg>