<?xml version="1.0" encoding="UTF-8"?>
<svg width="100px" height="115px" viewBox="0 0 100 115" version="1.1" xmlns="http://www.w3.org/2000/svg" xmlns:xlink="http://www.w3.org/1999/xlink">
    <!-- Generator: Sketch 40.3 (33839) - http://www.bohemiancoding.com/sketch -->
    <title>Group</title>
    <desc>Created with Sketch.</desc>
    <defs></defs>
    <g id="Page-1" stroke="none" stroke-width="1" fill="none" fill-rule="evenodd">
        <g id="预览素材" transform="translate(-180.000000, -50.000000)">
            <g id="excel" transform="translate(180.000000, 50.000000)">
                <g id="Group">
                    <path d="M9.10714286,0 C4.10714286,0 0,4.10714286 0,9.10714286 L0,105.178571 C0,110.178571 4.10714286,114.285714 9.10714286,114.285714 L90.8928571,114.285714 C95.8928571,114.285714 100,110.178571 100,105.178571 L100,36.25 L66.25,0 L9.10714286,0 L9.10714286,0 Z" id="Shape" fill="#45B058"></path>
                    <path d="M34.6428571,96.25 C34.2857143,96.25 33.9285714,96.0714286 33.75,95.8928571 L27.1428571,86.9642857 L20.3571429,95.8928571 C20.1785714,96.0714286 19.8214286,96.25 19.4642857,96.25 C18.75,96.25 18.2142857,95.7142857 18.2142857,95 C18.2142857,94.8214286 18.2142857,94.4642857 18.3928571,94.2857143 L25.3571429,85.1785714 L18.9285714,76.4285714 C18.75,76.25 18.5714286,76.0714286 18.5714286,75.7142857 C18.5714286,75.1785714 19.1071429,74.4642857 19.8214286,74.4642857 C20.3571429,74.4642857 20.7142857,74.6428571 20.8928571,75 L27.1428571,83.2142857 L33.2142857,75 C33.3928571,74.6428571 33.75,74.4642857 34.1071429,74.4642857 C34.8214286,74.4642857 35.5357143,75 35.5357143,75.7142857 C35.5357143,76.0714286 35.3571429,76.25 35.3571429,76.4285714 L28.75,85 L35.7142857,94.2857143 C35.8928571,94.4642857 36.0714286,94.8214286 36.0714286,95 C36.0714286,95.7142857 35.3571429,96.25 34.6428571,96.25 L34.6428571,96.25 Z M52.5,96.0714286 L42.8571429,96.0714286 C41.7857143,96.0714286 40.8928571,95.1785714 40.8928571,94.1071429 L40.8928571,75.7142857 C40.8928571,75 41.4285714,74.4642857 42.3214286,74.4642857 C43.0357143,74.4642857 43.5714286,75 43.5714286,75.7142857 L43.5714286,93.75 L52.5,93.75 C53.2142857,93.75 53.75,94.2857143 53.75,94.8214286 C53.75,95.5357143 53.2142857,96.0714286 52.5,96.0714286 L52.5,96.0714286 Z M65,96.4285714 C61.7857143,96.4285714 59.2857143,95.3571429 57.5,93.75 C57.1428571,93.5714286 57.1428571,93.2142857 57.1428571,92.8571429 C57.1428571,92.1428571 57.5,91.4285714 58.3928571,91.4285714 C58.5714286,91.4285714 58.9285714,91.6071429 59.1071429,91.7857143 C60.5357143,93.0357143 62.6785714,94.1071429 65.1785714,94.1071429 C68.9285714,94.1071429 70.1785714,91.9642857 70.1785714,90.3571429 C70.1785714,84.8214286 57.5,87.8571429 57.5,80.3571429 C57.5,76.7857143 60.5357143,74.2857143 64.8214286,74.2857143 C67.5,74.2857143 70,75.1785714 71.6071429,76.6071429 C71.9642857,76.7857143 72.1428571,77.1428571 72.1428571,77.5 C72.1428571,78.2142857 71.6071429,78.9285714 70.8928571,78.9285714 C70.7142857,78.9285714 70.3571429,78.75 70.1785714,78.5714286 C68.5714286,77.3214286 66.6071429,76.7857143 64.6428571,76.7857143 C61.9642857,76.7857143 60.1785714,78.0357143 60.1785714,80.1785714 C60.1785714,85 72.8571429,82.1428571 72.8571429,90.1785714 C72.8571429,93.2142857 70.7142857,96.4285714 65,96.4285714 L65,96.4285714 Z" id="Shape" fill="#FFFFFF"></path>
                    <path d="M100,36.4285714 L100,38.2142857 L77.1428571,38.2142857 C77.1428571,38.2142857 65.7142857,35.8928571 66.0714286,26.0714286 C66.0714286,26.0714286 66.4285714,36.4285714 76.7857143,36.4285714 L100,36.4285714 Z" id="Shape" fill="#349C42"></path>
                    <path d="M66.0714286,0 L66.0714286,26.0714286 C66.0714286,28.9285714 68.2142857,36.4285714 77.1428571,36.4285714 L100,36.4285714 L66.0714286,0 Z" id="Shape" fill="#FFFFFF"></path>
                </g>
            </g>
        </g>
    </g>
</svg>