<?xml version="1.0" encoding="UTF-8"?>
<svg width="40px" height="41px" viewBox="0 0 40 41" version="1.1" xmlns="http://www.w3.org/2000/svg" xmlns:xlink="http://www.w3.org/1999/xlink">
    <!-- Generator: Sketch 40.3 (33839) - http://www.bohemiancoding.com/sketch -->
    <title>习题</title>
    <desc>Created with Sketch.</desc>
    <defs></defs>
    <g id="Page-1" stroke="none" stroke-width="1" fill="none" fill-rule="evenodd">
        <g id="首页---全部分类" transform="translate(-52.000000, -429.000000)" fill="#000000">
            <g id="习题" transform="translate(0.000000, 415.000000)">
                <g transform="translate(52.000000, 14.000000)" id="Group">
                    <g>
                        <polygon id="Shape" points="0 2.76154562e-07 2.29555113 2.76154562e-07 2.29555113 40.3974656 0 40.3974656 0 2.76154565e-07"></polygon>
                        <polygon id="Shape" points="36.9698067 2.76154562e-07 39.2653578 2.76154562e-07 39.2653578 16.1052765 36.9698067 16.1052765 36.9698067 2.76154562e-07"></polygon>
                        <polygon id="Shape" points="36.9698067 27.7273408 39.2653578 27.7273408 39.2653578 40.3974656 36.9698067 40.3974656 36.9698067 27.7273408"></polygon>
                        <polygon id="Shape" points="1.96673983 2.76154562e-07 39.2495591 2.76154562e-07 39.2495591 2.29555141 1.96673983 2.29555141 1.96673983 2.76154562e-07"></polygon>
                        <polygon id="Shape" points="6.91708913 10.3791916 32.2808917 10.3791916 32.2808917 12.6747428 6.91708913 12.6747428 6.91708913 10.3791916"></polygon>
                        <polygon id="Shape" points="6.91708913 19.6216288 26.6538103 19.6216288 26.6538103 21.9171799 6.91708913 21.9171799 6.91708913 19.6216288"></polygon>
                        <polygon id="Shape" points="6.91708913 27.702452 24.2385488 27.702452 24.2385488 29.9980031 6.91708913 29.9980031 6.91708913 27.702452"></polygon>
                        <polygon id="Shape" points="1.96673983 38.1019145 39.2495591 38.1019145 39.2495591 40.3974656 1.96673983 40.3974656 1.96673983 38.1019145"></polygon>
                    </g>
                </g>
            </g>
        </g>
    </g>
</svg>