<?xml version="1.0" encoding="UTF-8"?>
<svg width="40px" height="34px" viewBox="0 0 40 34" version="1.1" xmlns="http://www.w3.org/2000/svg" xmlns:xlink="http://www.w3.org/1999/xlink">
    <!-- Generator: Sketch 40.3 (33839) - http://www.bohemiancoding.com/sketch -->
    <title>精华</title>
    <desc>Created with Sketch.</desc>
    <defs></defs>
    <g id="Page-1" stroke="none" stroke-width="1" fill="none" fill-rule="evenodd">
        <g id="首页---全部分类" transform="translate(-240.000000, -433.000000)" fill="#000000">
            <g id="精华" transform="translate(188.000000, 414.000000)">
                <g transform="translate(52.000000, 19.000000)" id="Group">
                    <g>
                        <path d="M34.9755068,0.0443321717 L5.03327469,0.0443321717 C2.27814585,0.0443321717 0.0428937841,2.35085633 0.0428937841,5.1964194 L0.0428937841,28.2329182 C0.0428937841,31.0785345 2.32796713,33.7006469 5.14590492,33.7006469 L34.8607475,33.7006469 C37.6807611,33.7006469 39.9659409,31.0785345 39.9659409,28.2329182 L39.9659409,5.1964194 C39.9659409,2.35080312 37.7305824,0.0443321717 34.9755068,0.0443321717 Z M37.7368101,28.4990577 C37.7368101,29.9213602 36.5368937,31.4137105 35.1268869,31.4137105 L4.8797122,31.4137105 C3.47183449,31.4137105 2.27191813,29.9213601 2.27191813,28.4990576 L2.27191818,4.93027995 C2.27191818,3.50691293 3.38954419,2.35420973 4.76708203,2.35420973 L35.2416462,2.35420973 C36.6192373,2.35420973 37.7368101,3.50691293 37.7368101,4.93027995 L37.7368101,28.4990577 Z" id="Shape"></path>
                        <path d="M12.7220967,9.43298689 C12.7220967,7.19816068 12.6860614,5.62639428 12.6172378,4.71779417 L15.027237,5.76563844 L14.0841984,6.60387126 L14.0841984,13.7290631 L15.5511059,13.7290631 L16.7037559,12.5764664 L18.380328,14.3577378 L14.0841985,14.3577378 L14.0841985,16.2438681 C16.2487107,17.2228355 17.3849132,18.0775157 17.4896657,18.810996 C17.5944182,19.5444764 17.4537369,20.0863363 17.0704961,20.4350855 C16.6857116,20.7854314 16.3010869,20.4531297 15.9178461,19.4396707 C15.5331149,18.4278085 14.9224313,17.5371994 14.0841985,16.767737 L14.0841985,24.3120453 C14.0841985,25.779006 14.1185837,27.1052321 14.188951,28.2937577 L12.6172379,29.1320437 C12.6860615,27.5244017 12.7220968,23.8585437 12.7220968,18.1299451 C11.603832,20.854255 10.0321189,23.229869 8.00685087,25.2550838 L7.79723943,24.9407731 C8.91390736,23.2642543 9.84055168,21.5877353 10.5739788,19.9112697 C11.3074591,18.2347508 11.9181959,16.3846026 12.4076796,14.3577909 L11.4645879,14.3577909 C10.5559878,14.3577909 9.71775495,14.4625435 8.9498362,14.6721016 L8.00679766,13.7291163 L12.7220436,13.7291163 L12.7220435,9.43298689 L12.7220967,9.43298689 Z M8.94988931,7.5469098 C10.2072918,8.59475407 10.9932016,9.36421644 11.3075122,9.8521033 C11.6218229,10.341587 11.7086377,10.8311239 11.5694999,11.319064 C11.4287121,11.8085477 11.1667777,12.1408494 10.7835901,12.3144788 C10.3988589,12.4896518 10.1713097,12.1752346 10.102486,11.3714402 C10.0321188,10.5691362 9.5785639,9.36421644 8.74033108,7.75641477 L8.94988931,7.5469098 Z M18.4851337,8.48994835 L17.6469009,8.80431225 C16.5285296,10.4120074 15.5511059,11.6694099 14.7128731,12.5764664 L14.5033149,12.366855 C15.5511059,10.3416402 16.2487106,8.59475407 16.5990034,7.12779339 L18.4851337,8.48994835 Z M18.7994976,8.07077873 L24.1433649,8.07077873 C24.1433649,6.32548941 24.1073828,5.1024722 24.0385592,4.40343027 L26.3438059,5.34646882 L25.5055731,6.18475485 L25.5055731,8.07083194 L28.6489994,8.07083194 L29.8015961,6.91823521 L31.478115,8.69955979 L25.5055731,8.69955979 L25.5055731,11.3191172 L28.0203247,11.3191172 L29.068169,10.2712729 L30.6398289,11.9477386 L25.5055731,11.9477386 L25.5055731,14.6721017 L29.3824797,14.6721017 L30.5350764,13.519505 L32.2115421,15.3008295 L21.5238075,15.3008296 C20.615101,15.3008296 19.7768149,15.4055821 19.0090558,15.6150871 L18.0660173,14.6720485 L24.1433649,14.6720485 L24.1433649,11.9476854 L22.9908214,11.9476854 C22.0820084,11.9476854 21.2437756,12.0525443 20.4760165,12.2620493 L19.5329779,11.3190108 L24.1433649,11.3190108 L24.1433649,8.69945337 L22.2572879,8.69945337 C21.3485813,8.69945337 20.5102952,8.80425909 19.7425362,9.01381727 L18.7994976,8.07077873 Z M19.9520943,29.2367963 C20.020918,27.141161 20.0568468,24.7490996 20.0568468,22.0592281 C20.0568468,19.3707938 20.020918,17.4667789 19.9520943,16.3485674 L21.5238074,17.2916591 L28.0203247,17.2916591 L28.9633101,16.3485674 L30.430324,17.8155813 L29.5920911,18.3394502 L29.5920911,26.6172389 C29.5920911,27.4555249 29.4513034,28.0482707 29.1729747,28.3986167 C28.8928896,28.7473658 28.3690207,29.0616765 27.6012616,29.341602 C27.3916501,28.4330019 26.4126828,27.7339601 24.6673402,27.24602 L24.6673402,26.8268504 C26.4126828,27.1052322 27.4440796,27.2279758 27.7583903,27.1935905 C28.0727542,27.1576617 28.229883,26.9316561 28.229883,26.5125397 L28.229883,23.5786716 L21.419055,23.5786715 L21.419055,28.6081749 L19.9520943,29.2367963 Z M21.419055,17.9202805 L21.419055,20.0159158 L28.2298298,20.0159158 L28.2298298,17.9202805 L21.419055,17.9202805 Z M21.419055,20.6446436 L21.419055,22.9498371 L28.2298298,22.9498371 L28.2298298,20.6446436 L21.419055,20.6446436 Z" id="Shape"></path>
                    </g>
                </g>
            </g>
        </g>
    </g>
</svg>