<?xml version="1.0" encoding="UTF-8"?>
<svg width="40px" height="40px" viewBox="0 0 40 40" version="1.1" xmlns="http://www.w3.org/2000/svg" xmlns:xlink="http://www.w3.org/1999/xlink">
    <!-- Generator: Sketch 40.3 (33839) - http://www.bohemiancoding.com/sketch -->
    <title>英语</title>
    <desc>Created with Sketch.</desc>
    <defs></defs>
    <g id="Page-1" stroke="none" stroke-width="1" fill="none" fill-rule="evenodd">
        <g id="首页---全部分类" transform="translate(-52.000000, -501.000000)" fill="#3A3A3A">
            <g id="英语" transform="translate(0.000000, 486.000000)">
                <g transform="translate(52.000000, 15.000000)" id="Shape">
                    <path d="M32.2787643,39.8888444 L7.68391983,39.8888444 C3.46225994,39.8888444 0.0387248031,36.4653093 0.0387248031,32.2436494 L0.0387248031,7.64880496 C0.0387248031,3.42714507 3.46225994,0.00360993927 7.68391983,0.00360993927 L32.2787643,0.00360993927 C36.5004241,0.00360993927 39.9239593,3.42714507 39.9239593,7.64880496 L39.9239593,32.2436494 C39.9449626,36.4653093 36.5214274,39.8888444 32.2787643,39.8888444 Z M38.3067065,8.19489032 C38.3067065,4.58232564 35.3662469,1.64186602 31.7536822,1.64186602 L8.25100847,1.64186602 C4.63844379,1.64186602 1.69798416,4.58232564 1.69798416,8.19489032 L1.69798416,31.697564 C1.69798416,35.3101287 4.63844379,38.2505883 8.25100847,38.2505883 L31.7326789,38.2505883 C35.3452436,38.2505883 38.2857032,35.3101287 38.2857032,31.697564 L38.2857032,8.19489032 L38.3067065,8.19489032 Z M30.0524163,27.538914 C29.3803112,27.538914 29.0442587,27.2658713 29.0442587,26.6987827 L29.0442587,20.4398043 C29.0442587,18.7175351 27.9520879,17.4363349 26.2718253,17.4783414 C24.7175824,17.520348 23.7514313,19.1376008 23.5413985,20.7548536 L23.5413985,26.7617925 C23.5413985,27.3078779 23.4363821,27.5179107 22.8692935,27.5179107 C22.2601982,27.5179107 21.9031424,27.3078779 21.9031424,26.7617925 L21.9031424,16.9322561 C21.9031424,16.3231609 22.2601982,16.0291149 22.8692935,16.0291149 C23.4363821,16.0291149 23.5413985,16.3231609 23.5413985,16.9322561 L23.5413985,17.4783414 C23.8984543,16.6382101 24.8856086,15.7770755 26.2718253,15.8400853 C28.771216,15.9451018 30.6405082,17.5413513 30.6405082,20.2087682 L30.6405082,26.7617925 C30.6405082,27.3288812 30.5985016,27.538914 30.0524163,27.538914 Z M19.1727156,25.6906251 C19.7398043,25.6906251 20.012847,26.1526973 20.012847,26.6987827 C20.012847,27.2658713 19.718801,27.3288812 19.1727156,27.3288812 C19.1727156,27.3288812 11.3384911,27.2868746 10.4143466,27.3498844 C9.78424813,27.3078779 9.36418247,27.0558385 9.3221759,26.2367104 C9.42719232,26.2997203 9.25916605,14.2438358 9.3221759,13.6977505 C9.42719232,13.1516651 9.700235,12.6055798 10.4143466,12.5845765 L19.1517124,12.5845765 C19.718801,12.5845765 19.9918437,12.7105962 19.9918437,13.214675 C19.9918437,13.8237702 19.6977977,14.2228326 19.1517124,14.2228326 L10.960432,14.2228326 L10.960432,19.1376008 L18.605627,19.1376008 C19.1727156,19.1376008 19.5927813,19.3896402 19.5927813,19.9567288 C19.5927813,20.5238175 19.1727156,20.7758569 18.605627,20.7758569 L10.960432,20.7758569 L10.960432,25.6906251 L19.1727156,25.6906251 L19.1727156,25.6906251 Z"></path>
                </g>
            </g>
        </g>
    </g>
</svg>