<?xml version="1.0" encoding="UTF-8"?>
<svg width="40px" height="46px" viewBox="0 0 40 46" version="1.1" xmlns="http://www.w3.org/2000/svg" xmlns:xlink="http://www.w3.org/1999/xlink">
    <!-- Generator: Sketch 40.3 (33839) - http://www.bohemiancoding.com/sketch -->
    <title>研</title>
    <desc>Created with Sketch.</desc>
    <defs></defs>
    <g id="Page-1" stroke="none" stroke-width="1" fill="none" fill-rule="evenodd">
        <g id="首页---全部分类" transform="translate(-240.000000, -496.000000)">
            <g id="考研" transform="translate(188.000000, 483.000000)">
                <polyline id="Path-3" stroke="#EEEEEE" points="0 71 188 71 188 1"></polyline>
                <g id="研" transform="translate(52.000000, 13.000000)" fill="#3A3A3A">
                    <g id="Group">
                        <path d="M12.4833814,4.88741525 L32.1475916,4.88741525 L32.1475916,1.03145472 C32.1475916,0.475893824 31.696997,0.0253630769 31.1415,0.0253630769 L4.89878711,0.0253631215 C2.2217963,0.0253631215 0.0438903456,2.20326912 0.0438903456,4.88051545 C0.0438903456,4.91571715 0.0506623411,4.95008834 0.055006689,4.98497061 C0.051237369,7.45739541 0.0206354961,30.1747628 0.051237369,33.1621802 C0.0495124192,33.2200618 0.0427404236,33.2767934 0.0427404236,33.3357611 C0.0427404236,35.9097661 2.05779857,38.0161826 4.59264094,38.1750694 C4.6437505,38.1829914 4.6936462,38.1898273 4.74590573,38.1898273 L5.61687648,38.1898273 C5.61579041,37.6110755 5.61464045,36.9323406 5.61406546,36.1787302 L4.89821213,36.1787301 C3.37003639,36.1787301 2.12251599,34.9654532 2.06150395,33.4515242 C2.06316499,33.4254583 2.06770096,33.3993286 2.06712598,33.3721127 C2.06597601,33.3266891 2.06482604,33.2585217 2.06373998,33.1678023 C2.15139287,31.6779587 3.3873497,30.4919614 4.89821208,30.4919614 L5.61234038,30.4919614 C5.61285146,28.8968322 5.61342644,27.2205026 5.61457641,25.5453869 C5.59668807,25.4693614 5.58454957,25.391036 5.58454957,25.3098996 L5.58454957,4.87994047 C5.58454957,4.32437958 6.03424977,3.87378497 6.58981066,3.87378497 C7.14505208,3.87378497 7.59558283,4.32437962 7.59558283,4.87994047 L7.59558283,6.93978337 C8.84144219,5.67405521 10.5725229,4.88620138 12.4833814,4.88741525 Z" id="Shape"></path>
                        <path d="M29.2294915,19.2729666 C29.3646763,19.2061408 29.4331631,18.5602438 29.4331631,17.3384698 C29.3647402,17.0680364 29.0258838,16.9311905 28.4149329,16.9311905 C28.0745433,16.9311905 27.804046,17.1698083 27.6004383,17.6439133 C27.3967667,18.3916461 27.3967667,19.0025331 27.6004383,19.4765742 L29.2294915,19.2729666 Z" id="Shape"></path>
                        <path d="M19.4552999,24.1600623 C19.6589076,23.9564546 19.8275052,23.5491754 19.9643511,22.9382884 C20.0311768,22.5310091 19.997764,22.2605757 19.8625153,22.1237298 C19.5220618,21.8532964 19.1148463,21.9200582 18.6407413,22.3274014 C18.4370697,22.599432 18.3352978,23.1085471 18.3352978,23.8546827 C18.4021236,24.2618981 18.77599,24.363734 19.4552999,24.1600623 Z" id="Shape"></path>
                        <path d="M38.9787033,39.4188843 C38.4237174,39.4188843 37.9731866,39.869479 37.9731866,40.4255509 L37.9731866,43.2050164 L12.7342655,43.2050164 C11.2055786,43.2050164 9.9582499,41.9918033 9.89723786,40.4788965 C9.89832392,40.4516807 9.90285989,40.4255509 9.90285989,40.398399 C9.90177382,40.3540614 9.90062386,40.2848719 9.89947389,40.1940885 C9.98712678,38.7050116 11.2231475,37.5191421 12.7342655,37.5191421 L38.7312692,37.5191421 C38.8106806,37.5191421 38.8872811,37.5077703 38.9611344,37.4896264 C38.9667564,37.4896264 38.9730174,37.4919263 38.9787033,37.4919263 C39.5336892,37.4919263 39.9842838,37.0413316 39.9842838,36.4863458 L39.9842838,8.057741 C39.9842838,7.50224401 39.5336891,7.05196883 38.9787033,7.05196883 L12.7354154,7.05196883 C10.0581052,7.05196883 7.88019924,9.22987483 7.88019924,11.9062268 C7.88019924,11.942259 7.8872907,11.9759913 7.89125168,12.0115125 C7.88786569,14.4839373 7.85694439,37.2013685 7.88786569,40.1884665 C7.88614074,40.2463481 7.87904928,40.3042297 7.87904928,40.3621113 C7.87904928,42.9361163 9.89442685,45.0425328 12.4289498,45.2014196 C12.4794205,45.2093416 12.5293801,45.2173275 12.5821507,45.2173275 L38.9787033,45.2173275 C39.5348392,45.2173275 39.984795,44.7667328 39.984795,44.211747 L39.984795,40.4256149 C39.9847949,39.869479 39.5347753,39.4188843 38.9787033,39.4188843 Z M13.7536455,23.4474035 C14.7718118,22.7696907 15.6197193,21.9201221 16.2990292,20.9020198 C17.0451649,19.7486688 17.5541522,18.7639154 17.8262466,17.9493568 C17.4189674,17.9493568 17.2153597,17.9159439 17.2153597,17.847521 C17.2153597,17.5770876 17.1470007,17.2032212 17.0116881,16.7275829 C16.8748423,16.3203036 16.8080804,15.9814472 16.8080804,15.7094166 C16.9432652,15.2353116 17.3171316,14.963281 17.9280186,14.8948581 C18.4020597,15.0985296 19.0813696,15.1668887 19.9642872,15.0985296 L20.066123,15.0985296 C21.0842892,14.7596733 22.1692173,14.6578375 23.3241656,14.7930862 C23.594599,14.7930862 23.7314449,14.929932 23.7314449,15.2003654 C23.7314449,15.6076447 23.6296091,15.9480982 23.4260014,16.2185317 C23.3576424,16.3553775 23.1205579,16.4905623 22.7133425,16.625811 C22.5096709,16.6942339 22.372889,16.7626568 22.3060632,16.8294825 C21.8987839,17.1015132 21.4915686,17.4753796 21.0842893,17.9494207 C21.0159303,18.0178436 20.8806177,18.1880384 20.67701,18.4584719 C19.386877,19.8839174 18.8094029,20.6315864 18.9461848,20.6984121 C20.4383922,20.4947405 21.5249175,20.6649992 22.2042274,21.2074633 C22.2710532,21.2758862 22.3394761,21.3092991 22.407899,21.3092991 C22.5430838,21.377722 22.6115706,21.1406375 22.6115706,20.5965763 L22.7134064,20.2911328 C23.0522627,20.3595558 23.5613139,20.3261429 24.2406238,20.189297 C24.7146649,20.1224713 25.0884675,20.0874612 25.360562,20.0874612 C25.5642335,20.0206355 25.6994183,19.715192 25.7677773,19.1711307 C25.7677773,18.2213874 25.6994183,17.5087285 25.5641696,17.0330264 C25.4957467,16.9662006 25.3939109,16.9311905 25.2587262,16.9311905 C25.0550546,16.8643648 24.9182726,16.762529 24.8514469,16.6257471 C24.7830878,16.4221394 24.714601,16.0498701 24.6477753,15.5058089 C24.5794163,14.894922 24.5794163,14.5560656 24.6477753,14.4876427 C24.7830239,14.4208169 24.9532188,14.4542298 25.1568903,14.5894146 C25.3605619,14.6578375 25.4957467,14.6912504 25.5641696,14.6912504 C26.5138491,14.7596733 28.313161,14.5225889 30.9603805,13.9785276 C31.91006,13.7749199 32.419175,13.6730841 32.487534,13.6730841 C32.8948133,13.80993 32.9966491,14.2505583 32.7929775,14.9966939 C32.7929775,15.0651168 32.6911417,15.2003016 32.487534,15.4039732 C32.1471444,15.540819 31.9434728,15.7094166 31.8766471,15.9130243 C31.7398012,16.2534779 31.6380293,16.7959419 31.5712036,17.5420776 C31.4343578,18.4934181 31.4010088,19.0358821 31.4693678,19.1711308 C31.8082242,19.1711308 32.3506882,19.1043051 33.098421,18.9675231 C33.7760699,18.9006974 34.1500002,18.8656873 34.2183592,18.8656873 C34.6256385,19.0693589 34.931082,19.715192 35.1346897,20.800184 C35.0663307,21.1406375 34.8961358,21.3776581 34.6256385,21.5129068 C34.5572156,21.5129068 34.3870207,21.4794939 34.1165234,21.411071 C33.3688545,21.1406375 32.8947495,21.0388017 32.6910779,21.1056275 C31.6729117,21.1056275 31.1288504,21.2424734 31.0620247,21.5129068 C31.1288504,22.9383523 31.0620247,24.6358285 30.8584169,26.6037381 C30.7215711,27.4182327 30.6547454,28.0291197 30.6547454,28.436399 C30.6547454,28.8436783 30.7215711,29.693183 30.8584169,30.9817827 C30.9936017,31.9331871 31.0620247,32.5090001 31.0620247,32.7126717 C31.0620247,33.051528 30.8584169,33.2217867 30.4511377,33.2217867 C30.1791071,33.2217867 29.7718278,33.051528 29.2293637,32.7126717 C29.4330353,30.813185 29.5348072,28.471409 29.5348072,25.6874076 L29.5348072,21.7166422 C29.2627127,21.1741143 28.4816309,21.1741143 27.1930312,21.7166422 C26.7858158,22.0570957 26.2767007,23.2105107 25.6658777,25.1784202 C25.5290318,25.5856356 25.4272599,25.8577301 25.3604342,25.9929149 C25.2920113,26.1297608 25.3254242,26.2983584 25.46227,26.50203 L25.46227,26.8074096 C25.3938471,27.2146889 25.0199807,27.6903272 24.3423319,28.2328551 C23.8666297,28.6401344 23.2891555,28.9455779 22.6114429,29.1492495 C21.7969482,29.3528572 21.2878331,29.3878033 21.0842254,29.2510853 C21.0158664,29.1158366 21.4915047,28.4031777 22.5096709,27.112917 C22.7801044,26.7740606 22.983776,26.53704 23.1205579,26.4002581 C24.4092215,24.7043791 25.0550546,23.3457593 25.0550546,22.3275931 C24.24056,22.3959521 23.4260014,22.5662108 22.6115067,22.8366443 C22.5430838,22.9050672 22.4413119,23.075262 22.3060632,23.3457593 C22.1692174,23.6862128 22.0340326,23.9232334 21.8987839,24.0584182 C21.6267533,24.3305127 21.3897328,24.771141 21.1861251,25.3820279 C21.1177661,25.7224814 21.0492792,25.926153 20.9824535,25.9929149 C20.9140945,25.9929149 20.7787819,26.0279249 20.5751742,26.0947507 C19.6923205,26.1631097 19.1148464,26.3333684 18.8443491,26.6038657 C18.7759901,26.6722247 18.7075032,26.7740606 18.6406775,26.9092454 C18.5038317,27.1813398 18.335234,27.3165246 18.1316263,27.3165246 C17.6559241,27.3848837 17.07845,26.1297607 16.4007373,23.549367 C16.467563,23.3456954 16.1621196,23.549367 15.4844068,24.160254 C15.0087046,24.5007075 14.3978177,24.7711409 13.651682,24.9748125 C13.0407951,25.0431715 12.6669286,24.9413996 12.5317439,24.6693691 L13.7536455,23.4474035 Z" id="Shape"></path>
                    </g>
                </g>
            </g>
        </g>
    </g>
</svg>