<?xml version="1.0" encoding="UTF-8"?>
<svg width="40px" height="31px" viewBox="0 0 40 31" version="1.1" xmlns="http://www.w3.org/2000/svg" xmlns:xlink="http://www.w3.org/1999/xlink">
    <!-- Generator: Sketch 40.3 (33839) - http://www.bohemiancoding.com/sketch -->
    <title>执业资格</title>
    <desc>Created with Sketch.</desc>
    <defs></defs>
    <g id="Page-1" stroke="none" stroke-width="1" fill="none" fill-rule="evenodd">
        <g id="首页---全部分类" transform="translate(-52.000000, -576.000000)" fill="#3A3A3A">
            <g id="资格考试" transform="translate(0.000000, 556.000000)">
                <g id="执业资格" transform="translate(52.000000, 20.000000)">
                    <g id="Group">
                        <polygon id="Shape" points="22.8547879 11.8353697 34.3763394 11.8353697 34.3763394 13.8732848 22.8547879 13.8732849 22.8547879 11.8353697"></polygon>
                        <path d="M26.3619879,26.8129212 L26.2603636,26.711297 L3.62065455,26.711297 C2.71922423,26.711297 2.01793941,25.9976 2.01793941,25.0806545 L2.01793941,3.68448486 C2.01793941,2.76753941 2.71922427,1.95299395 3.62065455,1.95299395 L35.8789818,1.95299395 C36.7804121,1.95299395 37.481697,2.66669091 37.481697,3.58363636 L37.481697,16.4216485 L37.5817697,16.5232727 C38.0821333,16.829697 38.5832727,17.2369697 38.9851151,17.7458667 L39.385406,18.2547636 L39.385406,3.17481214 C39.385406,1.44332123 37.9820606,0.0174788182 36.2792727,0.0174788182 L3.12029091,0.0174787727 C1.41750305,0.0174787727 0.0141575909,1.44332118 0.0141575909,3.17481209 L0.0141575909,25.5903272 C0.0141575909,27.3218181 1.41750305,28.7476605 3.12029091,28.7476605 L27.6637091,28.7476605 L27.3634909,28.3403878 C26.9624242,27.8307151 26.662206,27.3218182 26.3619879,26.8129212 L26.3619879,26.8129212 L26.3619879,26.8129212 Z" id="Shape"></path>
                        <polygon id="Shape" points="22.8547879 16.3184727 26.2611394 16.3184727 26.2611394 18.3563879 22.8547879 18.3563879 22.8547879 16.3184727"></polygon>
                        <polygon id="Shape" points="22.8547879 7.45389091 34.3763394 7.45389091 34.3763394 9.49180605 22.8547879 9.49180605 22.8547879 7.45389091"></polygon>
                        <path d="M33.3740606,16.624897 C29.6682666,16.624897 26.7622788,19.5797575 26.7622788,23.3491636 C26.7622788,27.0177212 29.7683394,30.0734303 33.3740606,30.0734303 C37.0798545,30.0734303 39.9858424,27.1185697 39.9858424,23.3491636 C39.9858424,19.5797575 36.9805576,16.624897 33.3740606,16.624897 L33.3740606,16.624897 L33.3740606,16.624897 Z M33.2739879,27.4234424 C32.9722182,27.7298666 32.3725575,27.7298666 31.9707151,27.4234424 L29.1663515,24.5717575 C28.8661333,24.2653333 28.8661333,23.6532606 29.1663515,23.3491636 C29.4665697,23.0427394 30.0677818,23.0427394 30.4696242,23.3491636 L32.6727757,25.5903272 L36.9805575,21.3112485 C37.2807757,21.0048242 37.8819879,21.0048242 38.2822788,21.3112485 C38.5840485,21.6176727 38.5840485,22.2281939 38.2822788,22.5338424 L33.2739879,27.4234424 L33.2739879,27.4234424 L33.2739879,27.4234424 Z" id="Shape"></path>
                        <path d="M12.7738182,17.8156849 C9.9888485,17.8156849 7.72363636,15.479103 7.72363636,12.6064727 C7.72363636,9.73461818 9.9888485,7.39726059 12.7738182,7.39726059 C15.5587879,7.39726059 17.824,9.73461818 17.824,12.6064727 C17.824,15.479103 15.5572364,17.8156849 12.7738182,17.8156849 L12.7738182,17.8156849 L12.7738182,17.8156849 Z M12.7738182,9.11246059 C10.918206,9.11246059 9.40858182,10.6802666 9.40858182,12.6064727 C9.40858182,14.5334545 10.918206,16.1012606 12.7738182,16.1012606 C14.6286545,16.1012606 16.137503,14.5334545 16.137503,12.6064727 C16.137503,10.6802667 14.6286545,9.11246059 12.7738182,9.11246059 L12.7738182,9.11246059 L12.7738182,9.11246059 Z" id="Shape"></path>
                        <path d="M19.5081697,20.2779394 C19.2226909,20.2779394 18.9449697,20.1313212 18.7859394,19.8644606 L16.0273454,15.2145697 C15.7868605,14.8096243 15.9148605,14.2828849 16.3136,14.0377455 C16.7115636,13.7918304 17.2305454,13.9229334 17.4710303,14.3278788 L20.2296242,18.9777697 C20.4701091,19.383491 20.3421091,19.9094546 19.9433697,20.1553697 C19.8060606,20.2383758 19.6563394,20.2779394 19.5081697,20.2779394 L19.5081697,20.2779394 L19.5081697,20.2779394 Z" id="Shape"></path>
                        <path d="M19.5081697,20.2779394 C19.439903,20.2779394 19.3685333,20.2686303 19.2979394,20.2523394 L16.5393454,19.5339879 C16.0886303,19.4176243 15.8171151,18.9490667 15.9319272,18.4898182 C16.0467394,18.0321213 16.5075394,17.7536243 16.9574787,17.8715395 L19.7160727,18.589891 C20.1667878,18.7078061 20.438303,19.1748122 20.3234909,19.6325091 C20.2265212,20.0203879 19.8828606,20.2779394 19.5081697,20.2779394 L19.5081697,20.2779394 L19.5081697,20.2779394 Z" id="Shape"></path>
                        <path d="M16.0157091,21.9520242 C15.932703,21.9520242 15.8489212,21.9396121 15.7651394,21.9140121 C15.3206303,21.7712727 15.0723879,21.2910788 15.2112485,20.8395879 L15.9435636,18.448703 C16.0824242,17.9972121 16.5525333,17.7474181 16.998594,17.8847272 C17.4423273,18.0259151 17.6905697,18.506109 17.5524849,18.9591515 L16.8201697,21.3500363 C16.7069091,21.7177455 16.3756606,21.9520242 16.0157091,21.9520242 L16.0157091,21.9520242 L16.0157091,21.9520242 Z" id="Shape"></path>
                        <path d="M16.0164849,21.9520242 C15.7240243,21.9520242 15.440097,21.7976485 15.2849455,21.5199273 L13.0383515,17.5193455 C12.8079515,17.108194 12.9483636,16.5837818 13.3525333,16.349503 C13.756703,16.112897 14.2702545,16.2571879 14.5014303,16.6683394 L16.7472485,20.669697 C16.9776485,21.0800728 16.8372363,21.6044849 16.4330666,21.8379879 C16.3027394,21.9155636 16.1576727,21.9520242 16.0164849,21.9520242 L16.0164849,21.9520242 L16.0164849,21.9520242 Z" id="Shape"></path>
                        <path d="M6.03636364,20.2779394 C5.88819395,20.2779394 5.73847273,20.2383758 5.60116364,20.1553697 C5.20242423,19.9102303 5.07442423,19.3827152 5.31490909,18.9777697 L8.07350305,14.3278788 C8.31398791,13.9229334 8.83064245,13.7926061 9.23015759,14.036194 C9.62967273,14.2805576 9.756897,14.807297 9.51718791,15.2130182 L6.75859395,19.8629091 C6.60111514,20.1313212 6.32261818,20.2779394 6.03636364,20.2779394 L6.03636364,20.2779394 L6.03636364,20.2779394 Z" id="Shape"></path>
                        <path d="M6.03713941,20.2779394 C5.660897,20.2779394 5.31723636,20.0203879 5.22104245,19.6340606 C5.10623032,19.1748121 5.3777455,18.7085819 5.82846064,18.589891 L8.58705459,17.873091 C9.03932127,17.7551758 9.49701823,18.0336728 9.61183036,18.4913697 C9.7266425,18.9490667 9.45512732,19.4168485 9.00363641,19.5339879 L6.24581823,20.2523394 C6.176,20.2701818 6.10540605,20.2779394 6.03713941,20.2779394 L6.03713941,20.2779394 L6.03713941,20.2779394 Z" id="Shape"></path>
                        <path d="M9.52727273,21.9520242 C9.16887273,21.9520242 8.83529695,21.7169697 8.72358786,21.3508121 L7.99127273,18.9583757 C7.85241214,18.5068848 8.10143032,18.0266909 8.54516364,17.8839515 C8.98889695,17.7474182 9.46288486,17.9964364 9.60019395,18.4479273 L10.3325091,20.8388121 C10.4721455,21.2918545 10.2231273,21.7720485 9.77861818,21.9132364 C9.69561214,21.9403879 9.61183032,21.9520242 9.52727273,21.9520242 L9.52727273,21.9520242 L9.52727273,21.9520242 Z" id="Shape"></path>
                        <path d="M9.11069091,21.8387636 C8.70574545,21.6052606 8.56610909,21.0808485 8.79650909,20.6704727 L11.0423273,16.6698909 C11.273503,16.2595151 11.7901576,16.116 12.1912242,16.3510545 C12.5953939,16.5853333 12.735806,17.1097455 12.505406,17.5201212 L10.2588121,21.520703 C10.1052121,21.7976485 9.82050909,21.9520242 9.52727273,21.9520242 C9.38530909,21.9520242 9.24256968,21.9155636 9.11069091,21.8387636 Z" id="Shape"></path>
                    </g>
                </g>
            </g>
        </g>
    </g>
</svg>