<?xml version="1.0" encoding="UTF-8"?>
<svg width="40px" height="45px" viewBox="0 0 40 45" version="1.1" xmlns="http://www.w3.org/2000/svg" xmlns:xlink="http://www.w3.org/1999/xlink">
    <!-- Generator: Sketch 40.3 (33839) - http://www.bohemiancoding.com/sketch -->
    <title>书籍</title>
    <desc>Created with Sketch.</desc>
    <defs></defs>
    <g id="Page-1" stroke="none" stroke-width="1" fill="none" fill-rule="evenodd">
        <g id="首页---全部分类" transform="translate(-240.000000, -569.000000)" fill="#3A3A3A">
            <g id="课外书籍" transform="translate(188.000000, 556.000000)">
                <g id="书籍" transform="translate(52.000000, 13.000000)">
                    <g id="Group">
                        <path d="M39.1199101,36.3256308 L39.1199101,2.79427929 C39.1199101,1.25007231 37.8698377,3.40161536e-16 36.3256308,3.40161536e-16 L2.79427929,0 C1.25007231,0 0,1.25007231 0,2.79427929 L0,40.5170497 C0,42.8211046 1.88736408,44.7084686 4.19141893,44.7084686 L38.4335958,44.7084686 C38.8257754,44.7084686 39.1444213,44.3898227 39.1444213,43.9976432 C39.1444213,43.6054636 38.8257754,43.2868178 38.4335958,43.2868178 L37.7227704,43.2868178 L37.7227704,37.6982592 C38.5071295,37.7227704 39.1199101,37.0854786 39.1199101,36.3256308 Z M2.05894263,3.43157106 C2.05894263,2.67172318 2.6962344,2.03443141 3.45608228,2.03443141 L5.58855858,2.03443141 L5.58855858,35.6638278 L4.19141893,35.6638278 C3.11292517,35.6638278 2.86781296,35.6638278 2.03443141,36.2520971 L2.03443141,3.43157106 L2.05894263,3.43157106 Z M35.688339,42.6740372 L4.19141893,42.6740372 C2.64721196,42.6740372 1.88736408,41.7426108 1.88736408,40.1984038 C1.88736408,38.6541968 2.64721196,37.7227704 4.19141893,37.7227704 L35.688339,37.7227704 L35.688339,42.6740372 Z M7.64750121,35.688339 L7.64750121,2.03443141 L35.688339,2.03443141 C36.4481869,2.03443141 37.0854786,2.67172318 37.0854786,3.43157106 L37.0854786,35.6638278 L7.64750121,35.6638278 L7.64750121,35.688339 Z" id="Shape"></path>
                        <path d="M26.0926086,16.969697 L12.8320376,16.969697 C12.439858,16.969697 12.1212121,17.3128541 12.1212121,17.7540561 C12.1212121,18.1952581 12.439858,18.5384152 12.8320376,18.5384152 L26.0926086,18.5384152 C26.4847881,18.5384152 26.803434,18.1952581 26.803434,17.7540561 C26.803434,17.3128541 26.4847881,16.969697 26.0926086,16.969697 Z" id="Shape"></path>
                        <path d="M30.9948529,13.3333333 L12.8320376,13.3333333 C12.439858,13.3333333 12.1212121,13.6764904 12.1212121,14.1176924 C12.1212121,14.5588944 12.439858,14.9020515 12.8320376,14.9020515 L30.9948529,14.9020515 C31.3870325,14.9020515 31.7056784,14.5588944 31.7056784,14.1176924 C31.7056784,13.6764904 31.3870325,13.3333333 30.9948529,13.3333333 Z" id="Shape"></path>
                        <path d="M12.8320376,11.2166655 L21.2148754,11.2166655 C21.607055,11.2166655 21.9257009,10.8735083 21.9257009,10.4568176 C21.9257009,10.0401268 21.607055,9.6969697 21.2148754,9.6969697 L12.8320376,9.6969697 C12.439858,9.6969697 12.1212121,10.0401268 12.1212121,10.4568176 C12.1212121,10.8735083 12.439858,11.2166655 12.8320376,11.2166655 Z" id="Shape"></path>
                    </g>
                </g>
            </g>
        </g>
    </g>
</svg>