<?xml version="1.0" standalone="no"?><!DOCTYPE svg PUBLIC "-//W3C//DTD SVG 1.1//EN" "http://www.w3.org/Graphics/SVG/1.1/DTD/svg11.dtd"><svg t="1492328027806" class="icon" style="" viewBox="0 0 1024 1024" version="1.1" xmlns="http://www.w3.org/2000/svg" p-id="1553" xmlns:xlink="http://www.w3.org/1999/xlink" width="200" height="200"><defs><style type="text/css"></style></defs><path d="M776.157 944.873c0 0-740.732-0.624-537.835-0.624-35.287-4.657-62.519-34.845-62.519-71.385v-552.251c0-39.77 32.254-72.008 72.042-72.008h47.943v48.007h-47.943c-13.266 0-24.014 10.744-24.014 24.002v552.251c0 13.256 10.748 24.002 24.014 24.002h528.312c13.261 0 24.014-10.747 24.014-24.002v-552.251c0-13.258-10.753-24.002-24.014-24.002h-48.112v-48.007h48.112c39.785 0 72.038 32.239 72.038 72.008v552.251c0.001 39.768-32.254 72.009-72.038 72.009zM319.803 729.015h384.228v24.014h-384.228v-24.014zM319.803 584.93h384.228v24.014h-384.228v-24.014zM319.803 440.844h384.228v24.014h-384.228v-24.014zM343.814 248.726c0-13.261 10.751-24.011 24.014-24.011h72.042c0 0 0.291-32.151 0.291-71.176 0-40.522 31.228-74.411 71.752-74.411s72.85 35.62 72.85 74.646c0 42.022-0.807 70.941-0.807 70.941h72.042c13.263 0 24.014 10.751 24.014 24.011 0 13.263 0 46.527 0 46.527h-336.201c0 0 0-33.264 0-46.527zM511.915 199.198c13.263 0 24.014-10.751 24.014-24.016 0-13.261-10.751-24.011-24.014-24.011-13.263 0-24.014 10.751-24.014 24.011 0 13.265 10.751 24.016 24.014 24.016z" p-id="1554"></path></svg>
