<?xml version="1.0" encoding="UTF-8"?>
<svg width="40px" height="40px" viewBox="0 0 40 40" version="1.1" xmlns="http://www.w3.org/2000/svg" xmlns:xlink="http://www.w3.org/1999/xlink">
    <!-- Generator: Sketch 40.3 (33839) - http://www.bohemiancoding.com/sketch -->
    <title>其他</title>
    <desc>Created with Sketch.</desc>
    <defs></defs>
    <g id="Page-1" stroke="none" stroke-width="1" fill="none" fill-rule="evenodd">
        <g id="首页---全部分类" transform="translate(-108.000000, -610.000000)" fill="#3A3A3A">
            <g id="其他" transform="translate(0.000000, 610.000000)">
                <g transform="translate(108.000000, 0.000000)" id="Shape">
                    <path d="M38.5,1.5 C37.6666667,0.5 36.3333333,0 35,0 L5,0 C3.66666668,0 2.33333332,0.5 1.5,1.5 C0.5,2.33333332 0,3.66666668 0,5 L0,35 C0,37.8333333 2.16666668,40 5,40 L35,40 C37.8333333,40 40,37.8333333 40,35 L40,5 C40,3.66666668 39.5,2.33333332 38.5,1.5 L38.5,1.5 Z M37.3333333,35 C37.3333333,36.3333333 36.3333333,37.3333333 35,37.3333333 L5,37.3333333 C3.66666668,37.3333333 2.66666668,36.3333333 2.66666668,35 L2.66666668,5 C2.66666668,3.66666668 3.66666668,2.66666668 5,2.66666668 L35,2.66666668 C36.3333333,2.66666668 37.3333333,3.66666668 37.3333333,5 L37.3333333,35 Z M31.8333333,10 L8.16666668,10 C7.83333336,10 7.5,10 7.33333332,10.3333333 C7,10.5 7,11 7.16666668,11.3333333 C7.33333336,11.6666666 7.66666668,12 8.16666668,12 L32,12 C32.5,12 33,11.5 33,11 C33,10.5 32.5,10 31.8333333,10 L31.8333333,10 Z M27.1666667,19 L8.16666668,19 C7.83333336,19 7.66666668,19.1666667 7.5,19.3333333 C7.16666668,19.6666666 7.16666668,20.1666666 7.33333332,20.5 C7.5,20.8333333 7.83333332,21.1666667 8.33333332,21.1666667 L27.3333333,21.1666667 C27.8333333,21.1666667 28.3333333,20.6666667 28.3333333,20.1666667 C28.1666666,19.3333334 27.6666666,19 27.1666667,19 Z M22.5,27.8333333 L8.16666668,27.8333333 C7.83333336,27.8333333 7.66666668,28 7.5,28.1666667 C7.16666668,28.5 7.16666668,29 7.33333332,29.3333333 C7.33333332,29.8333333 7.66666664,30 8.16666668,30 L22.5,30 C23,30 23.5,29.5 23.5,29 C23.5,28.3333333 23,27.8333333 22.5,27.8333333 L22.5,27.8333333 Z"></path>
                </g>
            </g>
        </g>
    </g>
</svg>