<?xml version="1.0" encoding="UTF-8"?>
<svg width="20px" height="20px" viewBox="0 0 20 20" version="1.1" xmlns="http://www.w3.org/2000/svg" xmlns:xlink="http://www.w3.org/1999/xlink">
    <!-- Generator: Sketch 42 (36781) - http://www.bohemiancoding.com/sketch -->
    <title>Shape</title>
    <desc>Created with Sketch.</desc>
    <defs></defs>
    <g id="Page-1" stroke="none" stroke-width="1" fill="none" fill-rule="evenodd">
        <g id="我的-已绑定" transform="translate(-81.000000, -484.000000)" fill-rule="nonzero" fill="#233142">
            <g id="钱包" transform="translate(81.000000, 484.000000)">
                <path d="M19.6479446,12.3338148 C18.8955323,9.63933986 17.2841507,7.55920966 14.7649937,6.14454787 C14.4755153,5.98198521 14.1694498,5.84652556 13.8707081,5.69829194 C13.8726186,5.69407096 13.8740081,5.68504589 13.8794503,5.68004738 C13.9297038,5.63361677 13.9809415,5.58818586 14.0313975,5.54194963 C14.5498823,5.06661905 15.0153636,4.51672733 15.2586413,3.86800396 C15.3765748,3.55351433 15.4056963,3.41666621 15.4875608,3.12466991 C15.6399133,2.20277794 15.4648078,1.6422505 14.8937537,1.17633379 C14.1220332,0.546632537 13.2464478,0.472071425 12.3215064,0.84173905 C12.2573291,0.867370312 12.2147468,0.886086947 12.150801,0.828020923 C10.960321,-0.252296065 9.04909765,-0.262376391 7.85039649,0.804277992 C7.79438243,0.854124261 7.75402914,0.866703826 7.6813411,0.83460228 C7.19490158,0.619860706 6.68651958,0.57387441 6.16464789,0.677371343 C5.17573174,0.873507354 4.35766571,1.68082233 4.50281021,2.78335493 C4.62876226,3.73995878 5.01512911,4.56773989 5.68124789,5.28130505 C5.81796854,5.42776141 5.9632867,5.56685886 6.11039963,5.71509246 C6.07372272,5.73214293 6.03742212,5.74997096 6.00045573,5.76621612 C2.59792642,7.25927123 0.299554653,10.5033602 0.0304265629,14.1933995 C-0.043998331,15.2137899 0.0182105799,16.2241278 0.28522546,17.2247463 C0.70575075,18.80086 2.15059542,19.9816748 3.88535273,19.9778426 C7.9733669,19.9687898 12.0614679,19.978759 16.1494821,19.9727053 C17.4627588,19.9707614 18.4738201,19.4051244 19.2073295,18.3751813 C19.5801777,17.8516151 19.7545016,17.2570422 19.8560795,16.6342278 C20.0921782,15.1856595 20.0432274,13.7494763 19.6479446,12.3338148 Z M12.8607179,14.8299877 C12.7514108,14.9104359 12.6126638,14.9506739 12.4445058,14.9506739 L10.6787743,14.9506739 L10.6787743,15.4871252 C10.6787743,15.6480494 10.6157259,15.8044751 10.4896002,15.9564576 C10.3634744,16.1084123 10.1995139,16.1754756 9.99771844,16.1575921 C9.79592303,16.1575921 9.62773607,16.1084123 9.49321547,16.0100805 C9.35869485,15.9117487 9.28302521,15.7374395 9.26620651,15.4871252 L9.26620651,14.9507572 L7.55093112,14.9507572 C7.3827731,14.9507572 7.24402611,14.9015774 7.13471904,14.8032456 C7.02541197,14.7049138 6.97915332,14.5842275 6.99597202,14.4411868 C6.99597202,14.2802626 7.05062554,14.1506345 7.15993259,14.0523027 C7.26923963,13.9539709 7.39956283,13.9047911 7.55090215,13.9047911 L9.26617754,13.9047911 L9.26617754,12.9661264 L7.55090215,12.9661264 C7.38274413,12.9661264 7.24819457,12.9124757 7.14731134,12.8052021 C7.04642812,12.6979285 6.99597202,12.5727713 6.99597202,12.4297306 C6.99597202,12.2867177 7.05062554,12.1526188 7.15993259,12.0274616 C7.26923963,11.9023045 7.39956283,11.8397398 7.55090215,11.8397398 L9.26617754,11.8397398 L9.29139112,11.2765465 C8.98868354,10.9547257 8.71121847,10.6507885 8.45896699,10.3647071 C8.2403529,10.1143928 8.03855748,9.88196201 7.85358076,9.66741482 L7.47520354,9.29194336 C7.39113901,9.18466977 7.31546934,9.03715818 7.24819457,8.84943634 C7.18094874,8.66171449 7.21458614,8.469494 7.34910673,8.27283037 C7.50044605,8.09402252 7.68542274,8.0448705 7.90403686,8.12531875 C8.12265095,8.205767 8.29923279,8.30856972 8.43375341,8.43372687 C8.50099924,8.52311691 8.61873013,8.65721582 8.78688812,8.8359959 L9.99766054,10.1233068 C10.2835494,9.83722535 10.5441958,9.57796925 10.7796865,9.34551075 C10.9814819,9.14884714 11.1832773,8.95662662 11.3850727,8.76890478 C11.5868971,8.58115517 11.7298126,8.45152711 11.813906,8.38002065 C11.9652743,8.23697995 12.1334323,8.16547346 12.318409,8.16547346 C12.5033857,8.16547346 12.654754,8.24592171 12.7724559,8.40684597 C12.99107,8.67504383 12.9069765,8.98792282 12.5202044,9.34551072 C12.4192922,9.43490076 12.2679529,9.59135414 12.0661575,9.81484309 C11.8643621,10.038332 11.6625667,10.2573501 11.4607713,10.4718973 C11.2253385,10.7400952 10.9646921,11.0172348 10.6788033,11.3032885 L10.6788033,11.8128589 L12.318409,11.8128589 C12.5538418,11.8128589 12.7261972,11.8709527 12.8355043,11.987168 C12.9448113,12.1033834 12.9994649,12.2330115 12.9994649,12.3760522 C12.9994649,12.5369487 12.9490377,12.6755185 12.8481255,12.7917338 C12.7472134,12.9079492 12.5790554,12.957129 12.3436226,12.9392455 L10.7040168,12.9660708 L10.6788033,13.8779102 L12.2931665,13.8779102 C12.7640321,13.8779102 12.9994649,14.065632 12.9994649,14.4411035 C13.0162836,14.6199114 12.970025,14.7495394 12.8607179,14.8299877 Z" id="Shape"></path>
            </g>
        </g>
    </g>
</svg>