<?xml version="1.0" encoding="UTF-8"?>
<svg width="18px" height="18px" viewBox="0 0 18 18" version="1.1" xmlns="http://www.w3.org/2000/svg" xmlns:xlink="http://www.w3.org/1999/xlink">
    <!-- Generator: Sketch 40.3 (33839) - http://www.bohemiancoding.com/sketch -->
    <title>Group</title>
    <desc>Created with Sketch.</desc>
    <defs></defs>
    <g id="Page-1" stroke="none" stroke-width="1" fill="none" fill-rule="evenodd">
        <g id="搜索" transform="translate(-162.000000, -282.000000)" fill="#00B9F8">
            <g id="对勾" transform="translate(162.000000, 282.000000)">
                <g id="Group">
                    <path d="M8.32200609,13.1479181 C8.25154837,13.1479181 8.18018816,13.1298473 8.11469427,13.0918186 C7.91651018,12.977753 7.84859592,12.7240437 7.96296919,12.5252238 L12.2719862,5.06029622 C12.3866672,4.8620506 12.6400688,4.79350046 12.8388888,4.90883779 C13.0371344,5.02290339 13.1050487,5.27655113 12.9906754,5.47545313 L8.68163781,12.9403602 C8.60463688,13.0731119 8.4653624,13.1479181 8.32200609,13.1479181 Z" id="Shape"></path>
                    <path d="M8.99987693,17.9817887 C4.04755126,17.9817887 0.0183753942,13.9526128 0.0183753942,9.00028716 C0.0183753942,4.04796147 4.04755126,0.0182113096 8.99987693,0.0182113096 C13.9524487,0.0182113096 17.9816246,4.04796149 17.9816246,9.00028716 C17.9816246,13.9526128 13.9524487,17.9817887 8.99987693,17.9817887 Z M8.99987693,0.848422584 C4.50508536,0.848422584 0.848012352,4.50547507 0.848012352,9.00028716 C0.848012352,13.4950992 4.50506484,17.1514954 8.99987693,17.1514954 C13.4949351,17.1514954 17.1519876,13.4950787 17.1519876,9.00028716 C17.1519876,4.50549559 13.4949351,0.848422584 8.99987693,0.848422584 Z" id="Shape"></path>
                    <path d="M8.32227274,13.1479181 C8.22223716,13.1479181 8.1219144,13.1117355 8.04212387,13.0388369 L4.95946066,10.2182517 C4.79050575,10.063655 4.77901918,9.80126926 4.93361591,9.63237588 C5.0881306,9.46221078 5.35059838,9.45097036 5.51979944,9.6061414 L8.60246264,12.4267265 C8.77139705,12.5813233 8.78290412,12.843709 8.6283074,13.0126639 C8.54669131,13.1024232 8.43447177,13.1479181 8.32227274,13.1479181 Z" id="Shape"></path>
                </g>
            </g>
        </g>
    </g>
</svg>