<?xml version="1.0" encoding="UTF-8"?>
<svg width="21px" height="20px" viewBox="0 0 21 20" version="1.1" xmlns="http://www.w3.org/2000/svg" xmlns:xlink="http://www.w3.org/1999/xlink">
    <!-- Generator: Sketch 43.1 (39012) - http://www.bohemiancoding.com/sketch -->
    <title>Shape</title>
    <desc>Created with Sketch.</desc>
    <defs>
        <filter x="-1.4%" y="-5.7%" width="102.8%" height="114.3%" filterUnits="objectBoundingBox" id="filter-1">
            <feOffset dx="0" dy="1" in="SourceAlpha" result="shadowOffsetOuter1"></feOffset>
            <feGaussianBlur stdDeviation="1.5" in="shadowOffsetOuter1" result="shadowBlurOuter1"></feGaussianBlur>
            <feColorMatrix values="0 0 0 0 0   0 0 0 0 0   0 0 0 0 0  0 0 0 0.292402627 0" type="matrix" in="shadowBlurOuter1" result="shadowMatrixOuter1"></feColorMatrix>
            <feMerge>

                <feMergeNode in="SourceGraphic"></feMergeNode>
            </feMerge>
        </filter>
    </defs>
    <g id="Page-1" stroke="none" stroke-width="1" fill="none" fill-rule="evenodd">
        <g id="首页---本校热门" transform="translate(-298.000000, -479.000000)" fill-rule="nonzero" fill="#999999">
            <g id="列表" filter="url(#filter-1)" transform="translate(10.000000, 435.000000)">
                <g id="参数" transform="translate(114.000000, 43.000000)">
                    <g id="收藏" transform="translate(177.000000, 0.000000)">
                        <g id="Group">
                            <path d="M14.6004609,5.95123334 C14.3570431,5.37565786 14.0087478,4.85896247 13.5652885,4.41546887 C13.1217949,3.97195815 12.6050823,3.6236286 12.0295069,3.38017652 C11.4330827,3.12791898 10.8000833,3 10.148051,3 C9.19363528,3 8.27468119,3.27954762 7.49036153,3.79901826 C6.70592195,3.279599 5.78693359,3 4.83280907,3 C4.18081112,3 3.54781172,3.12790185 2.9513704,3.3801594 C2.3757778,3.62359435 1.85903101,3.97190677 1.41550314,4.41540037 C0.97197529,4.85889397 0.623645742,5.37558936 0.38019365,5.9511477 C0.127918979,6.54753763 0,7.18050276 0,7.83244932 C0,8.93427943 0.395200631,10.1031441 1.17463788,11.3065624 C1.75900169,12.2088307 2.56500949,13.1407703 3.57027079,14.0765301 C5.25022892,15.6403213 6.90976661,16.6822948 6.97957642,16.7258767 L7.49043007,17.0448091 L8.00128371,16.7258767 C8.07111065,16.6822948 9.7305627,15.6403213 11.4104352,14.0765301 C12.4156451,13.1407703 13.2216186,12.2088307 13.8059653,11.3065624 C14.5853511,10.1031269 14.9805518,8.93427943 14.9805518,7.83246645 C14.9805689,7.18053701 14.8526842,6.54760614 14.6004609,5.95123334 Z" id="Shape"></path>
                        </g>
                    </g>
                </g>
            </g>
        </g>
    </g>
</svg>
