<?xml version="1.0" encoding="UTF-8"?>
<svg width="21px" height="21px" viewBox="0 0 21 21" version="1.1" xmlns="http://www.w3.org/2000/svg" xmlns:xlink="http://www.w3.org/1999/xlink">
    <!-- Generator: Sketch 43.1 (39012) - http://www.bohemiancoding.com/sketch -->
    <title>Shape</title>
    <desc>Created with Sketch.</desc>
    <defs>
        <filter x="-1.4%" y="-5.7%" width="102.8%" height="114.3%" filterUnits="objectBoundingBox" id="filter-1">
            <feOffset dx="0" dy="1" in="SourceAlpha" result="shadowOffsetOuter1"></feOffset>
            <feGaussianBlur stdDeviation="1.5" in="shadowOffsetOuter1" result="shadowBlurOuter1"></feGaussianBlur>
            <feColorMatrix values="0 0 0 0 0   0 0 0 0 0   0 0 0 0 0  0 0 0 0.292402627 0" type="matrix" in="shadowBlurOuter1" result="shadowMatrixOuter1"></feColorMatrix>
            <feMerge>

                <feMergeNode in="SourceGraphic"></feMergeNode>
            </feMerge>
        </filter>
    </defs>
    <g id="Page-1" stroke="none" stroke-width="1" fill="none" fill-rule="evenodd">
        <g id="首页---本校热门" transform="translate(-121.000000, -478.000000)" fill-rule="nonzero" fill="#9E9E9E">
            <g id="列表" filter="url(#filter-1)" transform="translate(10.000000, 435.000000)">
                <g id="参数" transform="translate(114.000000, 43.000000)">
                    <g id="评论">
                        <path d="M3.76085215,7.53692694 C3.2436176,7.53692694 2.8242636,7.97182648 2.8242636,8.50849721 C2.8242636,9.045185 3.2436176,9.48008453 3.76085215,9.48008453 C4.27808669,9.48008453 4.69744069,9.045185 4.69744069,8.50849721 C4.69744069,7.97184354 4.27808669,7.53692694 3.76085215,7.53692694 Z M7.50724044,7.53692694 C6.9900059,7.53692694 6.5706519,7.97182648 6.5706519,8.50849721 C6.5706519,9.045185 6.99002296,9.48008453 7.50724044,9.48008453 C8.02445793,9.48008453 8.44382899,9.045185 8.44382899,8.50849721 C8.44382899,7.97184354 8.02445793,7.53692694 7.50724044,7.53692694 Z M11.2536288,7.53692694 C10.7363942,7.53692694 10.3170232,7.97182648 10.3170232,8.50849721 C10.3170232,9.045185 10.7363942,9.48008453 11.2536288,9.48008453 C11.7708633,9.48008453 12.1902173,9.045185 12.1902173,8.50849721 C12.1902173,7.97184354 11.7708462,7.53692694 11.2536288,7.53692694 Z M13.1267888,2.67926334 L1.88765798,2.67926334 C0.853188889,2.67926334 0.0144808889,3.54931836 0.0144808889,4.62242093 L0.0144808889,11.9089249 C0.0144808889,12.9820445 0.871959553,13.971208 1.93019915,13.971208 L4.78479257,13.971208 C5.28235204,14.5012578 7.34170012,16.6332996 7.34170012,16.6332996 C7.43314745,16.7284157 7.58133342,16.7284157 7.67278075,16.6332996 C7.67278075,16.6332996 9.180561,14.9238199 10.1629159,13.971208 L13.0842647,13.971208 C14.1425213,13.971208 15,12.9820274 15,11.9089249 L15,4.62242093 C15,3.54931836 14.1612749,2.67926334 13.1267888,2.67926334 Z M14.0634115,11.9089249 C14.0634115,12.4453908 13.613393,13.0083405 13.0842647,13.0083405 L10.2113784,13.0083405 C9.86337,13.0083405 9.55054813,13.3661949 9.55054813,13.3661949 L7.53329756,15.4584429 L5.51650773,13.3661949 C5.51650773,13.3661949 5.13234023,13.0083405 4.80308546,13.0083405 L1.93019917,13.0083405 C1.40107083,13.0083405 0.951069451,12.4453908 0.951069451,11.9089249 L0.951069434,4.62242093 C0.951069434,4.0857502 1.37042343,3.65081655 1.88765798,3.65081655 L13.1267888,3.65081655 C13.6440233,3.65081655 14.0634115,4.0857502 14.0634115,4.62242093 L14.0634115,11.9089249 Z" id="Shape"></path>
                    </g>
                </g>
            </g>
        </g>
    </g>
</svg>
