<?xml version="1.0" encoding="UTF-8"?>
<svg width="17px" height="16px" viewBox="0 0 17 16" version="1.1" xmlns="http://www.w3.org/2000/svg" xmlns:xlink="http://www.w3.org/1999/xlink">
    <!-- Generator: Sketch 40.3 (33839) - http://www.bohemiancoding.com/sketch -->
    <title>Shape</title>
    <desc>Created with Sketch.</desc>
    <defs></defs>
    <g id="Page-1" stroke="none" stroke-width="1" fill="none" fill-rule="evenodd">
        <g id="预览---评论" transform="translate(-57.000000, -229.000000)" fill="#00B9F8">
            <g id="顶部文件信息" transform="translate(-1.000000, 83.000000)">
                <g id="评论" transform="translate(37.000000, 128.000000)">
                    <g transform="translate(21.653465, 17.531250)" id="Shape">
                        <path d="M4.01215293,6.41423488 C3.46035668,6.41423488 3.01298138,6.87631563 3.01298138,7.44652828 C3.01298138,8.01675906 3.46035668,8.47883982 4.01215293,8.47883982 C4.56394917,8.47883982 5.01132448,8.01675906 5.01132448,7.44652828 C5.01132448,6.87633376 4.56394917,6.41423488 4.01215293,6.41423488 Z M8.00887553,6.41423488 C7.45707928,6.41423488 7.00970398,6.87631563 7.00970398,7.44652828 C7.00970398,8.01675906 7.45709748,8.47883982 8.00887553,8.47883982 C8.56065358,8.47883982 9.00804708,8.01675906 9.00804708,7.44652828 C9.00804708,6.87633376 8.56065358,6.41423488 8.00887553,6.41423488 Z M12.0055982,6.41423488 C11.4538019,6.41423488 11.0064084,6.87631563 11.0064084,7.44652828 C11.0064084,8.01675906 11.4538019,8.47883982 12.0055982,8.47883982 C12.5573944,8.47883982 13.0047697,8.01675906 13.0047697,7.44652828 C13.0047697,6.87633376 12.5573762,6.41423488 12.0055982,6.41423488 Z M14.003923,1.2529673 L2.01379161,1.2529673 C0.910199116,1.2529673 0.0154485044,2.17740076 0.0154485044,3.31757224 L0.0154485044,11.0594827 C0.0154485044,12.1996723 0.930224039,13.2506585 2.05917539,13.2506585 L5.10451323,13.2506585 C5.6353197,13.8138364 7.83227378,16.0791308 7.83227378,16.0791308 C7.92983163,16.1801917 8.08791941,16.1801917 8.18547726,16.0791308 C8.18547726,16.0791308 9.79400765,14.2628086 10.8420037,13.2506585 L13.9585575,13.2506585 C15.087527,13.2506585 16.0023026,12.1996541 16.0023026,11.0594827 L16.0023026,3.31757224 C16.0023026,2.17740076 15.1075337,1.2529673 14.003923,1.2529673 Z M15.003131,11.0594827 C15.003131,11.6294777 14.5230422,12.2276118 13.9585575,12.2276118 L10.8937044,12.2276118 C10.5224421,12.2276118 10.1887174,12.6078321 10.1887174,12.6078321 L8.03667379,14.8308456 L5.88512171,12.6078321 C5.88512171,12.6078321 5.47528407,12.2276118 5.12402845,12.2276118 L2.05917541,12.2276118 C1.49469062,12.2276118 1.01462007,11.6294778 1.01462007,11.0594827 L1.01462006,3.31757224 C1.01462006,2.74735959 1.46199536,2.28524258 2.01379161,2.28524258 L14.003923,2.28524258 C14.5557193,2.28524258 15.003131,2.74735959 15.003131,3.31757224 L15.003131,11.0594827 Z"></path>
                    </g>
                </g>
            </g>
        </g>
    </g>
</svg>