<?xml version="1.0" encoding="UTF-8"?>
<svg width="21px" height="21px" viewBox="0 0 21 21" version="1.1" xmlns="http://www.w3.org/2000/svg" xmlns:xlink="http://www.w3.org/1999/xlink">
    <!-- Generator: Sketch 42 (36781) - http://www.bohemiancoding.com/sketch -->
    <title>Shape</title>
    <desc>Created with Sketch.</desc>
    <defs>
        <filter x="-50%" y="-50%" width="200%" height="200%" filterUnits="objectBoundingBox" id="filter-1">
            <feColorMatrix values="0 0 0 0 0   0 0 0 0 0   0 0 0 0 0  0 0 0 0.292402627 0" type="matrix" in="shadowBlurOuter1" result="shadowMatrixOuter1"></feColorMatrix>
            <feMerge>
                <feMergeNode in="SourceGraphic"></feMergeNode>
            </feMerge>
        </filter>
    </defs>
    <g id="Page-1" stroke="none" stroke-width="1" fill="none" fill-rule="evenodd">
        <g id="搜索已分类" transform="translate(-172.000000, -174.000000)" fill-rule="nonzero" fill="#9E9E9E">
            <g id="列表" filter="url(#filter-1)" transform="translate(10.000000, 131.000000)">
                <g id="参数" transform="translate(114.000000, 43.000000)">
                    <g id="下载" transform="translate(51.000000, 0.000000)">
                        <path d="M14.9524841,14.9936306 C15.0163482,15.2484076 15.0030998,15.4899363 14.9127389,15.7182166 C14.8223779,15.9464968 14.681741,16.1482803 14.490828,16.3235669 C14.2999151,16.4988535 14.0663694,16.6369427 13.7901911,16.7378344 C13.5140127,16.8387261 13.2167728,16.889172 12.8984713,16.889172 C10.8921868,16.8997028 9.09804671,16.9049682 7.51605096,16.9049682 L2.10203822,16.9049682 C1.71987261,16.9049682 1.38288747,16.8360085 1.0910828,16.6980892 C0.799278132,16.5601699 0.565732484,16.3903185 0.39044586,16.188535 C0.215159236,15.9867516 0.0983014862,15.7664544 0.0398726115,15.5276433 C-0.0185562633,15.2888323 -0.0105732484,15.0738004 0.0638216561,14.8825478 C0.127685775,14.733758 0.191380042,14.5798726 0.254904459,14.4208917 C0.307898089,14.2829724 0.371592357,14.1263694 0.445987261,13.9510828 C0.520382166,13.7757962 0.600042463,13.5979618 0.684968153,13.4175796 L1.29031847,11.9526115 L3.10585987,11.9526115 L2.42101911,13.9592357 L12.6757962,13.9592357 L11.9909554,11.9526115 L13.7264968,11.9526115 C13.9493418,12.4940977 14.1511253,12.9824204 14.3318471,13.4175796 C14.406242,13.6088323 14.4806369,13.7946497 14.5550318,13.9750318 C14.6294268,14.155414 14.6958386,14.3172824 14.7542675,14.4606369 C14.8126964,14.6039915 14.8604246,14.7261146 14.8974522,14.8270064 C14.9344798,14.9278981 14.9529936,14.9836093 14.9529936,14.9941401 L14.9524841,14.9936306 Z M6.94280255,12.0478981 C6.74101911,11.8141826 6.51019108,11.5222081 6.25031847,11.1719745 C5.99044586,10.821741 5.72242038,10.4608068 5.44624204,10.089172 C5.17006369,9.71753715 4.89677282,9.35133758 4.62636943,8.99057325 C4.35596603,8.62980892 4.11443737,8.31660297 3.90178344,8.05095541 C3.65753715,7.76424628 3.56191083,7.52798301 3.61490446,7.34216561 C3.66789809,7.1563482 3.84845011,7.06343949 4.15656051,7.06343949 C4.32641189,7.07397028 4.55469214,7.07125265 4.84140127,7.05528662 C5.1281104,7.03932059 5.36692144,7.03133758 5.55783439,7.03133758 C5.77014862,7.03133758 5.90280255,6.96764331 5.95579618,6.84025478 C6.00878981,6.71286624 6.03528662,6.54301486 6.03528662,6.33070064 C6.03528662,6.09698514 6.032569,5.83949045 6.02713376,5.55821656 C6.02169851,5.27694268 6.01898089,4.98768577 6.01898089,4.69044586 C6.01898089,4.39320594 6.01626327,4.10123142 6.01082803,3.81452229 C6.00539278,3.52781316 6.00267516,3.26233546 6.00267516,3.01808917 C6.00267516,2.91176221 6.01065817,2.8003397 6.0266242,2.68382166 C6.04259023,2.56730361 6.07978769,2.4611465 6.13821656,2.36535032 C6.19664544,2.26955414 6.28157113,2.18989384 6.39299363,2.12636943 C6.50441614,2.06284501 6.65575372,2.03091295 6.84700637,2.03057325 C7.06985138,2.03057325 7.27418259,2.02785563 7.46,2.02242038 C7.64581741,2.01698514 7.86084926,2.01426752 8.10509554,2.01426752 C8.45532909,2.01426752 8.69159236,2.09647558 8.81388535,2.26089172 C8.93617834,2.42530786 9.00259023,2.68806794 9.01312102,3.04917197 L9.01312102,3.67031847 C9.01312102,3.91456476 9.01583864,4.17460722 9.02127389,4.45044586 C9.02670913,4.7262845 9.02942675,5.00229299 9.02942675,5.27847134 L9.02942675,6.02700637 C9.02942675,6.33477707 9.06135881,6.58157113 9.12522293,6.76738854 C9.18908705,6.95320594 9.33244161,7.04084926 9.55528662,7.03031847 C9.71460722,7.03031847 9.90840764,7.03558386 10.1366879,7.04611465 C10.3649682,7.05664544 10.564034,7.06191083 10.7338854,7.06191083 C11.0205945,7.06191083 11.2036943,7.1388535 11.2831847,7.29273885 C11.3626752,7.4466242 11.3069639,7.64569002 11.116051,7.88993631 C10.9142675,8.14471338 10.6807219,8.45265393 10.415414,8.81375796 C10.1501062,9.174862 9.87681529,9.54904459 9.5955414,9.93630573 C9.31426752,10.3235669 9.03825902,10.7004671 8.76751592,11.0670064 C8.49677282,11.4335456 8.25524416,11.7492994 8.04292994,12.0142675 C7.85167728,12.2585138 7.66857749,12.3831847 7.49363057,12.3882803 C7.31868365,12.3933758 7.13558386,12.2792357 6.94433121,12.0458599 L6.94280255,12.0478981 Z" id="Shape"></path>
                    </g>
                </g>
            </g>
        </g>
    </g>
</svg>