<?xml version="1.0" encoding="UTF-8"?>
<svg width="18px" height="17px" viewBox="0 0 18 17" version="1.1" xmlns="http://www.w3.org/2000/svg" xmlns:xlink="http://www.w3.org/1999/xlink">
    <!-- Generator: Sketch 40.3 (33839) - http://www.bohemiancoding.com/sketch -->
    <title>Shape</title>
    <desc>Created with Sketch.</desc>
    <defs></defs>
    <g id="Page-1" stroke="none" stroke-width="1" fill="none" fill-rule="evenodd" fill-opacity="0.00452898551">
        <g id="预览---评论" transform="translate(-134.000000, -228.000000)" stroke="#FA684B" fill="#F8421E">
            <g id="顶部文件信息" transform="translate(-1.000000, 83.000000)">
                <g id="收藏" transform="translate(117.000000, 128.000000)">
                    <g transform="translate(19.294118, 18.328125)" id="Group">
                        <g>
                            <path d="M15.6137715,3.13568543 C15.3534598,2.52413648 14.9809919,1.97514763 14.5067554,1.50393568 C14.0324821,1.03270553 13.4799084,0.662605387 12.8643864,0.403937556 C12.2265688,0.135913915 11.5496376,2.52773992e-16 10.8523526,2.52773992e-16 C9.83169789,2.52773992e-16 8.84896595,0.297019343 8.01021243,0.8489569 C7.17133067,0.297073933 6.18856208,0 5.1682188,0 C4.47097046,0 3.79403924,0.135895718 3.15620331,0.40391936 C2.54066306,0.662568994 1.98805268,1.03265094 1.5137428,1.50386289 C1.03943295,1.97507484 0.666928406,2.52406369 0.406580094,3.13559443 C0.136796894,3.76925874 0,4.44178418 0,5.1344774 C0,6.30517189 0.4226286,7.54709058 1.25616085,8.82572259 C1.88108105,9.78438262 2.74302793,10.7745684 3.81805702,11.7688133 C5.61460869,13.4303414 7.38932268,14.5374383 7.46397749,14.583744 L8.01028572,14.9226096 L8.55659396,14.583744 C8.63126708,14.5374383 10.4058895,13.4303414 12.2023495,11.7688133 C13.2773237,10.7745684 14.1392339,9.78438262 14.7641358,8.82572259 C15.5976131,7.54707237 16.0202417,6.30517189 16.0202417,5.1344956 C16.02026,4.44182058 15.8834997,3.76933152 15.6137715,3.13568543 Z" id="Shape"></path>
                        </g>
                    </g>
                </g>
            </g>
        </g>
    </g>
</svg>