<?xml version="1.0" encoding="UTF-8"?>
<svg width="15px" height="12px" viewBox="0 0 15 12" version="1.1" xmlns="http://www.w3.org/2000/svg" xmlns:xlink="http://www.w3.org/1999/xlink">
    <!-- Generator: Sketch 40.3 (33839) - http://www.bohemiancoding.com/sketch -->
    <title>分类</title>
    <desc>Created with Sketch.</desc>
    <defs></defs>
    <g id="Page-1" stroke="none" stroke-width="1" fill="none" fill-rule="evenodd">
        <g id="预览---评论" transform="translate(-245.000000, -167.000000)" fill="#9E9E9E">
            <g id="参数" transform="translate(76.000000, 162.000000)">
                <g id="分类" transform="translate(169.000000, 5.000000)">
                    <path d="M0.411507532,0.817256663 L14.5765632,0.817256663 C14.6853871,0.817256663 14.7806623,0.776386443 14.8622845,0.694767671 C14.9439937,0.61316628 14.9847613,0.514506952 14.9847613,0.398913094 C14.9847613,0.283006373 14.9439937,0.187717265 14.8622845,0.11306489 C14.7806623,0.0382369641 14.6853697,0.000858632677 14.5765632,0.000858632677 L0.411507719,0.000858632677 C0.289013513,0.000858632677 0.19036809,0.0382369641 0.115501925,0.11306489 C0.0406705231,0.187927578 0.00329045359,0.283181924 0.00329045359,0.398913094 C0.00329045359,0.514506952 0.0406705231,0.613164542 0.115501925,0.694767671 C0.190367903,0.776386443 0.289013326,0.817256663 0.411507532,0.817256663 L0.411507532,0.817256663 Z M14.5765637,10.6548789 L0.411507719,10.6548789 C0.289013513,10.6548789 0.19036809,10.6956448 0.115501925,10.7772289 C0.0406705231,10.8589693 0.00329045359,10.9541541 0.00329045359,11.0630771 C0.00329045359,11.1719148 0.0406705231,11.2671674 0.115501925,11.3487879 C0.19036809,11.4304067 0.289011775,11.4712769 0.411507719,11.4712769 L14.5765634,11.4712769 C14.6853872,11.4712769 14.7806624,11.4304067 14.8622847,11.3487879 C14.9439938,11.2671692 14.9847615,11.1718975 14.9847615,11.0630771 C14.9847615,10.9541524 14.9439938,10.8589693 14.8622847,10.7772289 C14.7806628,10.6956448 14.6853876,10.6548789 14.5765637,10.6548789 L14.5765637,10.6548789 Z M14.5765637,5.32787659 L0.411507719,5.32787659 C0.289013513,5.32787659 0.19036809,5.36862514 0.115501925,5.45036559 C0.0406705231,5.53196698 0.00329045359,5.6272387 0.00329045359,5.73607648 C0.00329045359,5.84487949 0.0406705231,5.94018424 0.115501925,6.02180475 C0.19036809,6.10340614 0.289011775,6.14427636 0.411507719,6.14427636 L14.5765634,6.14427636 C14.6853872,6.14427636 14.7806624,6.10340614 14.8622847,6.02180475 C14.9439938,5.94018598 14.9847615,5.84486211 14.9847615,5.73607648 C14.9847615,5.6272387 14.9439938,5.5319861 14.8622847,5.45036559 C14.7806628,5.36860776 14.6853876,5.32787659 14.5765637,5.32787659 L14.5765637,5.32787659 Z" id="Shape"></path>
                </g>
            </g>
        </g>
    </g>
</svg>