<?xml version="1.0" standalone="no"?><!DOCTYPE svg PUBLIC "-//W3C//DTD SVG 1.1//EN"
        "http://www.w3.org/Graphics/SVG/1.1/DTD/svg11.dtd">
<svg t="1494052224710" class="icon" style="" viewBox="0 0 1024 1024" version="1.1" xmlns="http://www.w3.org/2000/svg"
     p-id="1004" xmlns:xlink="http://www.w3.org/1999/xlink" width="200" height="200">
    <defs>
        <style type="text/css"></style>
    </defs>
    <path d="M956.517 156.439v20.059c-24.607 0-67.622 6.032-79.615 17.941-11.988 11.988-26.093 38.71-42.311 80.242l-234.372 592.554-150.215 0.395-258.899-580.25c-20.372-45.761-38.005-75.695-52.816-89.803-14.809-14.102-34.481-21.157-59.163-21.157v-20.059h404.806v20.059c-30.949 0-79.535 2.271-90.426 6.896-10.892 4.547-16.379 15.28-16.379 32.207 0 9.872 5.799 27.821 17.396 53.833 11.595 26.093 20.218 45.761 25.858 59.163l159.382 355.595 155.153-386.389c4.231-13.402 8.932-27.111 13.871-41.136 4.31-15.516 6.428-26.016 6.428-31.657 0-19.668-6.813-32.677-20.611-39.022-13.71-6.348-72.954-9.483-96.852-9.483v-20.059l318.766 0.079z"
          p-id="1005" fill="#9E9E9E"></path>
</svg>