<?xml version="1.0" encoding="UTF-8"?>
<svg width="128px" height="44px" viewBox="0 0 128 44" version="1.1" xmlns="http://www.w3.org/2000/svg" xmlns:xlink="http://www.w3.org/1999/xlink">
    <!-- Generator: Sketch 43.1 (39012) - http://www.bohemiancoding.com/sketch -->
    <title>share in wechat</title>
    <desc>Created with Sketch.</desc>
    <defs></defs>
    <g id="Page-1" stroke="none" stroke-width="1" fill="none" fill-rule="evenodd">
        <g id="Artboard" transform="translate(-526.000000, -136.000000)">
            <g id="share-in-wechat" transform="translate(526.000000, 136.000000)">
                <path d="M0.2066536,33.3373018 C11.6271186,38.5985192 25.5785146,42.0048183 37.6630596,36.2383419 C41.3645503,34.4720728 48.558437,30.5587033 49.7814513,25.4152307 C50.0083,24.4612024 49.2088246,23.168677 48.2678651,22.8925871 C42.1812206,21.1066854 34.3256879,27.7644616 38.7691418,34.3778923 C50.4751199,51.8005273 79.1733346,38.8380213 86.723626,24.5638385 C87.785147,22.5569829 69.4664957,16.0510149 78.8233855,31.197906 C80.0841488,33.2388239 82.1527604,34.9671165 84.4362675,35.7022801 C100.889561,40.9993358 121.910008,27.7757774 122.144938,10.6068277" id="Path-2" stroke="#FFFFFF"></path>
                <polygon id="Path-3" stroke="#FBFBFB" fill="#FFFFFF" fill-rule="evenodd" points="123.287267 0 118 10.8909336 126.712747 10.8909336"></polygon>
            </g>
        </g>
    </g>
</svg>