<?xml version="1.0" encoding="UTF-8"?>
<svg width="23px" height="17px" viewBox="0 0 23 17" version="1.1" xmlns="http://www.w3.org/2000/svg" xmlns:xlink="http://www.w3.org/1999/xlink">
    <!-- Generator: Sketch 42 (36781) - http://www.bohemiancoding.com/sketch -->
    <title>Shape</title>
    <desc>Created with Sketch.</desc>
    <defs>
        <filter x="-50%" y="-50%" width="200%" height="200%" filterUnits="objectBoundingBox" id="filter-1">
            <feColorMatrix values="0 0 0 0 0   0 0 0 0 0   0 0 0 0 0  0 0 0 0.292402627 0" type="matrix" in="shadowBlurOuter1" result="shadowMatrixOuter1"></feColorMatrix>
            <feMerge>
                <feMergeNode in="SourceGraphic"></feMergeNode>
            </feMerge>
        </filter>
    </defs>
    <g id="Page-1" stroke="none" stroke-width="1" fill="none" fill-rule="evenodd">
        <g id="搜索已分类" transform="translate(-234.000000, -177.000000)" fill-rule="nonzero" fill="#999999">
            <g id="列表" filter="url(#filter-1)" transform="translate(10.000000, 131.000000)">
                <g id="参数" transform="translate(114.000000, 43.000000)">
                    <g id="阅读" transform="translate(113.000000, 0.000000)">
                        <path d="M8.49499989,15.6229632 C4.6485448,15.6229632 1.36039491,13.5536472 0,10.3528772 C1.36039491,7.15280355 4.6485448,5 8.49499989,5 C12.341455,5 15.6289857,7.15280355 16.9899998,10.3528772 C15.6289857,13.5536472 12.341455,15.6229632 8.49499989,15.6229632 Z M8.49499989,5.93198141 C5.29662461,5.93198141 2.37616367,7.77288649 1.08797541,10.3528772 C2.37616367,12.9329453 5.29662461,14.6719475 8.49499989,14.6719475 C11.6933752,14.6719475 14.620337,12.9329453 15.9085253,10.3528772 C14.620337,7.77280911 11.6933752,5.93198141 8.49499989,5.93198141 L8.49499989,5.93198141 Z M8.49499989,13.2654255 C6.80754678,13.2654255 5.43925789,11.9616574 5.43925789,10.3534962 C5.43925789,8.745335 6.80754678,7.4415669 8.49499989,7.4415669 C10.182453,7.4415669 11.5508193,8.74525762 11.5508193,10.3534962 C11.5508193,11.9617348 10.182453,13.2654255 8.49499989,13.2654255 Z M8.49499989,8.53294073 C7.44038039,8.53294073 6.58543201,9.34831807 6.58543201,10.3534962 C6.58543201,11.3587517 7.44038039,12.1734327 8.49499989,12.1734327 C9.54954199,12.1734327 10.4051869,11.3587517 10.4051869,10.3534962 C10.4051869,9.3482407 9.54961938,8.53294073 8.49499989,8.53294073 Z" id="Shape"></path>
                    </g>
                </g>
            </g>
        </g>
    </g>
</svg>